<svg xmlns="http://www.w3.org/2000/svg" xmlns:xlink="http://www.w3.org/1999/xlink" version="1.0" id="escalation" x="0px" y="0px" width="100px" height="100px" viewBox="0 0 100 100" enable-background="new 0 0 100 100" xml:space="preserve">
<path d="M35.739,73.364L23.18,60.377C22.459,59.605,21.923,59,21,59c-0.92,0-1.421,0.516-2.177,1.377L6.263,73.364  c-0.39,0.772-0.34,1.7,0.103,2.439C6.805,76.549,7.594,77,8.44,77H16v12c0,2.762,2.239,5,5,5s5-2.238,5-5V77h7.563  c0.844,0,1.635-0.451,2.074-1.196C35.874,75.406,36,74.949,36,74.492C36,74.106,35.912,73.72,35.739,73.364z"/>
<path d="M64.739,61.364L52.18,48.377C51.459,47.605,50.923,47,50,47c-0.92,0-1.421,0.516-2.177,1.377l-12.56,12.987  c-0.39,0.772-0.34,1.7,0.103,2.439C35.805,64.549,36.594,65,37.44,65H45v24c0,2.762,2.239,5,5,5c2.762,0,5-2.238,5-5V65h7.563  c0.844,0,1.635-0.451,2.074-1.196C64.874,63.406,65,62.949,65,62.492C65,62.106,64.912,61.72,64.739,61.364z"/>
<path d="M93.739,21.364L81.18,8.377C80.459,7.605,79.923,7,79,7c-0.92,0-1.421,0.516-2.177,1.377l-12.56,12.987  c-0.39,0.772-0.34,1.7,0.103,2.439C64.805,24.549,65.594,25,66.44,25H74v64c0,2.762,2.238,5,5,5s5-2.238,5-5V25h7.563  c0.844,0,1.635-0.451,2.074-1.196C93.874,23.406,94,22.949,94,22.492C94,22.106,93.912,21.72,93.739,21.364z"/>
</svg>