<svg class = "mobilesvg" width="100%" xmlns="http://www.w3.org/2000/svg" xmlns:xlink="http://www.w3.org/1999/xlink" viewBox="0 0 90.33 677.12"><defs><style>
@media screen and (min-width: 768px) {
	.mobilesvg{
		display: none;
	}
}
.\34 78ec3da-04f2-43dd-8fc1-e15323d1bbea,.\34 8ddfc9a-f0e1-4427-8935-fe9cc55a564c,.b4469934-c5be-4a9a-886f-a584085d9adf,.c3318de2-b109-4da1-97b5-0fa8b5501946,.f4596836-a79b-48cb-8d09-98485e826fa8{fill:none;}.\33 d3f3420-335e-4731-ab9a-621e3c24809f{fill:#c02326;}.\32 ab271ca-d420-48b7-8f40-9f74b89b35d9{font-size:7.26px;letter-spacing:-0.02em;}.\32 ab271ca-d420-48b7-8f40-9f74b89b35d9,.a1f3c9d5-cc8b-4f09-865e-564012a2c147,.f4b9ce27-5146-41a5-89b6-77ac28e8e3aa{fill:#fff;}.\31 b99a1cd-dd30-4682-a463-e93bec24f741,.\32 ab271ca-d420-48b7-8f40-9f74b89b35d9,.\32 c89bf5c-dee3-469f-bcb1-8e79c84386e0,.\34 678826b-fd7b-485b-93cd-340c62bf55a7,.\35 10ad4fb-235c-4346-a867-c572adc953dd,.\35 f3d7c53-2706-4920-b33f-0d4ed37fa42d,.\37 b9499a0-9fac-4bbb-95cc-fe07b8c047a1,.\37 ff8d285-a375-4758-ad01-9f5945df6f91{
	font-family: Exo;
	font-weight: 900;

}.\32 281b1b0-d1f8-4d93-8510-5651a88feca9{font-size:17.18px;letter-spacing:-0.02em;}.\34 8ddfc9a-f0e1-4427-8935-fe9cc55a564c,.c3318de2-b109-4da1-97b5-0fa8b5501946{stroke:#939598;}.\34 78ec3da-04f2-43dd-8fc1-e15323d1bbea,.\34 8ddfc9a-f0e1-4427-8935-fe9cc55a564c,.c3318de2-b109-4da1-97b5-0fa8b5501946,.f4596836-a79b-48cb-8d09-98485e826fa8{stroke-miterlimit:10;}.\34 8ddfc9a-f0e1-4427-8935-fe9cc55a564c{stroke-width:1.88px;}.aa675a67-4d9e-4c2a-ad79-54ec4419227f{fill:#e6e7e8;}.\37 b9499a0-9fac-4bbb-95cc-fe07b8c047a1{font-size:6.77px;}.\30 98c66ab-ce9c-4de0-a917-b75e040b8375,.\31 b99a1cd-dd30-4682-a463-e93bec24f741,.\31 ca4c18a-8952-4ba7-8e26-23bf25c45da0,.\32 c89bf5c-dee3-469f-bcb1-8e79c84386e0,.\33 c70a2ff-c9ca-415d-b276-d576d530429d,.\34 678826b-fd7b-485b-93cd-340c62bf55a7,.\34 acd35f8-33b3-4e3e-85fd-95bef9e2e907,.\34 b6db9ad-329e-4bee-9d0f-c258a1175e40,.\34 f56b5a8-b770-4318-9e40-c012be39a0b8,.\35 10ad4fb-235c-4346-a867-c572adc953dd,.\35 4f17fa9-5f81-4b19-b9f3-2faaca8e69c4,.\35 f3d7c53-2706-4920-b33f-0d4ed37fa42d,.\37 0833646-a5ba-4daf-afb8-26b0e2930ec1,.\37 8eb8727-3ee0-406c-a21a-96acbf6d8a52,.\37 b9499a0-9fac-4bbb-95cc-fe07b8c047a1,.\37 f87fe19-5a7f-4c18-9477-afd7b79e25ab,.\37 ff8d285-a375-4758-ad01-9f5945df6f91,.a04d6d14-4dc2-472f-9b33-36cb4862f8ac,.baae68d8-35fb-456f-ad40-75c4c9d9efa6{fill:#333;}.\30 3070e34-00e3-4471-b3e4-cad517302d99{fill:#b3b5b8;}.c3318de2-b109-4da1-97b5-0fa8b5501946{stroke-width:1.34px;}.\34 243f4c7-d692-4972-a0ab-1afeea0afe5c{fill:#f1f2f2;}.\32 c89bf5c-dee3-469f-bcb1-8e79c84386e0{font-size:6.83px;}.\37 ff8d285-a375-4758-ad01-9f5945df6f91{font-size:6.85px;}.\35 10ad4fb-235c-4346-a867-c572adc953dd{font-size:6.84px;}.\34 678826b-fd7b-485b-93cd-340c62bf55a7{font-size:6.94px;}.\31 b99a1cd-dd30-4682-a463-e93bec24f741{font-size:7.72px;}.\33 c70a2ff-c9ca-415d-b276-d576d530429d{font-size:3.98px;letter-spacing:0.04em;}.\33 c70a2ff-c9ca-415d-b276-d576d530429d,.\34 b6db9ad-329e-4bee-9d0f-c258a1175e40,.\34 f56b5a8-b770-4318-9e40-c012be39a0b8,.\37 0833646-a5ba-4daf-afb8-26b0e2930ec1,.\37 8eb8727-3ee0-406c-a21a-96acbf6d8a52,.baae68d8-35fb-456f-ad40-75c4c9d9efa6{font-family:Exo-Regular, Exo;}.\37 8c448d1-52c8-40e3-a55e-f61d0fd728a8{fill:#f6f6f6;}.\34 b6db9ad-329e-4bee-9d0f-c258a1175e40{font-size:4.29px;letter-spacing:0.04em;}.\34 f56b5a8-b770-4318-9e40-c012be39a0b8{font-size:4.26px;letter-spacing:0.04em;}.baae68d8-35fb-456f-ad40-75c4c9d9efa6{font-size:3.77px;letter-spacing:0.04em;}.\37 8eb8727-3ee0-406c-a21a-96acbf6d8a52{font-size:4.62px;letter-spacing:0.04em;}.\31 4103235-ed54-4938-8236-da10152479b4{clip-path:url(#6df73847-62c4-4573-a2a1-724a442b2046);}.\37 0833646-a5ba-4daf-afb8-26b0e2930ec1{font-size:1.5px;}.e8bfd142-507b-40a2-a043-87f645c40b4e{letter-spacing:-0.02em;}.\36 04e0656-8473-4765-9723-2833e9fb8e66{fill:#8ab9e0;}.ff324e2c-64ff-4378-acab-36dbfb9a815b{fill:#d17464;}.\33 59dad58-783a-4d10-92dd-73de8c94b623{fill:#c95348;}.cf17f35c-6f05-4f3b-af64-a51146bb53d6{fill:#655d8b;}.\36 00492a9-9f18-4808-b058-747fc371630e{fill:#57a3d4;}.\39 0c39c7f-76c5-44e6-b229-25741075e1a2{fill:#2074af;}.\34 7e1274b-2683-47b6-935c-76398b4dea21{fill:#274a84;}.\39 b48a0e6-295d-483f-9624-70d507c470f0{fill:#be202e;}.\36 7131075-72b7-491b-9a9e-585df00d3618,.\37 f87fe19-5a7f-4c18-9477-afd7b79e25ab,.\38 6cc7564-8e7b-4de8-857a-50088596e34c,.a1f3c9d5-cc8b-4f09-865e-564012a2c147{fill-rule:evenodd;}.\34 79fabac-4cb7-4c21-8700-d3ec2a060487{fill:#ef3641;}.\37 3022ff7-95ac-4003-acce-8f41085e5b0e{fill:#ce2031;}.d0cb985e-796b-4ca2-9b8e-d05ed04b479f{opacity:0.32;}.\30 d16eaef-0436-4ab2-816c-58447b8f26c7{clip-path:url(#43c70d96-d8d0-4e50-bdaf-84bb8f08be08);}.b1963066-3648-446f-ba2a-9c3782304d51{fill:#841624;}.\36 c431c65-c463-4ada-9aa8-4193a0a3397b{opacity:0.58;}.\30 7c1cf39-0904-451e-8b65-5d68d54590f1{clip-path:url(#6ae7f871-a650-47c4-91b8-032902cd59e1);}.\32 9b0cf28-f3e0-45f9-9bce-fadb8741e40a{fill:#c1202a;}.\39 d6f6934-e8db-40c3-8a8b-9752f8a56e4c{opacity:0.71;}.\35 cfd22ee-8e34-484b-b018-d5e639246b59{clip-path:url(#d8fb85e3-1963-41c6-a4f7-7cb42c2a82b9);}.\32 bafa77e-8059-486f-a723-cda2af5cb396{fill:#841619;}.d6d7173b-ad3d-44ec-b17e-49e82e35505a{clip-path:url(#97e4e530-bb9c-4c66-846e-a8c17662279a);}.\31 ca4c18a-8952-4ba7-8e26-23bf25c45da0{font-size:2.29px;font-family:TimesNewRomanPSMT, Times New Roman;}.\38 879a741-38d6-44b2-95f3-ca819f688429{letter-spacing:-0.11em;}.\37 dca555d-1764-4027-8339-901c79f902e7{clip-path:url(#d7a94432-78dd-4450-b813-96052fa63296);}.fd0f1d36-992e-48ea-81ba-76150e5c84e8{fill:#233e95;}.\30 b660e7d-37fe-46e2-ac2b-f3fac9d212d5{clip-path:url(#a284c227-95ca-4a43-acee-af20a9f10125);}.\36 7131075-72b7-491b-9a9e-585df00d3618{fill:#c7c8ca;}.\30 99b5e88-9910-4afb-aae9-2ead86ca7735{fill:#6d6e71;}.\34 acd35f8-33b3-4e3e-85fd-95bef9e2e907{font-size:2.91px;letter-spacing:0.04em;}.\34 acd35f8-33b3-4e3e-85fd-95bef9e2e907,.\35 4f17fa9-5f81-4b19-b9f3-2faaca8e69c4,.a04d6d14-4dc2-472f-9b33-36cb4862f8ac{font-family:Exo-Bold, Exo;font-weight:700;}.a53faf5c-ab48-4cd4-9c4f-9ed1b5b66a6a{fill:#ee3441;}.\34 78ec3da-04f2-43dd-8fc1-e15323d1bbea,.f4596836-a79b-48cb-8d09-98485e826fa8{stroke:#ce2031;}.\34 78ec3da-04f2-43dd-8fc1-e15323d1bbea{stroke-width:0.17px;}.\34 c1e9a9e-c5c1-4225-9fd3-4c29e36ee40a{clip-path:url(#a5bf3a14-53c3-46d5-b91d-ca8c1f9dc113);}.eab50091-f58a-4731-8e1d-13f490d5a0e9{clip-path:url(#7328e631-03c1-4c32-b602-c1f1f0b2325e);}.\33 6522e4b-66ee-40d1-bbd1-bf7b2737f099{fill:#c12029;}.\30 ed807af-0d4d-4b51-810c-e41e9847a339{clip-path:url(#609bc0bf-fc84-44cb-98d3-04257e11af6c);}.\37 0f9d77d-970b-4353-9eeb-4b2aebe87fd4{clip-path:url(#e68b31d6-7864-436f-96b3-3c89b18875de);}.\35 4f17fa9-5f81-4b19-b9f3-2faaca8e69c4,.a04d6d14-4dc2-472f-9b33-36cb4862f8ac{font-size:3.52px;}.\35 4f17fa9-5f81-4b19-b9f3-2faaca8e69c4{letter-spacing:0.04em;}.a04d6d14-4dc2-472f-9b33-36cb4862f8ac{letter-spacing:0.04em;}.\32 3449fd4-a98d-4cdc-aa9a-01e7ce2a5c50{letter-spacing:0.04em;}.f4596836-a79b-48cb-8d09-98485e826fa8{stroke-width:0.24px;}.\33 35f6b15-71c4-40e2-892d-035327c46da3{clip-path:url(#19c88615-8d49-4c07-8d07-4ecab2a56989);}.\32 73ff2c5-543a-4f32-80af-d2494fff3738{clip-path:url(#4920eefd-5e94-445d-9285-63667d5512e8);}.\34 326cc20-48f6-44a0-ad8c-e60e5fac7e44{clip-path:url(#e4d8cea4-c0b1-4b18-95f5-c07a3c13ad93);}.c5a3d62f-dc76-44d2-8af0-dace482753d1{clip-path:url(#fda0d075-07e7-4cf6-b842-de665859b3da);}.\30 6b2d867-503c-4e6c-9657-2470e045c503{clip-path:url(#bed6d1ab-407f-47fb-858c-6399fea0643c);}.\35 f3d7c53-2706-4920-b33f-0d4ed37fa42d{font-size:3.28px;}.\39 de0a1a8-a73d-4ebd-95b5-192b6f045808{letter-spacing:-0.12em;}.\31 e85aa93-030d-41c7-8213-c50a9e14065f{letter-spacing:-0.04em;}.d8697d77-b556-4e85-ad81-9f3c1d92be7c{letter-spacing:-0.01em;}.b69279f3-1f40-49ac-b2cf-8b6eda087194{letter-spacing:-0.02em;}</style><clipPath id="6df73847-62c4-4573-a2a1-724a442b2046"><rect class="b4469934-c5be-4a9a-886f-a584085d9adf" x="14.83" y="155.78" width="6.3" height="6.64"/></clipPath><clipPath id="43c70d96-d8d0-4e50-bdaf-84bb8f08be08"><rect class="b4469934-c5be-4a9a-886f-a584085d9adf" x="39.18" y="155.13" width="7.13" height="6.94"/></clipPath><clipPath id="6ae7f871-a650-47c4-91b8-032902cd59e1"><rect class="b4469934-c5be-4a9a-886f-a584085d9adf" x="39.18" y="156.1" width="7.13" height="5.97"/></clipPath><clipPath id="d8fb85e3-1963-41c6-a4f7-7cb42c2a82b9"><rect class="b4469934-c5be-4a9a-886f-a584085d9adf" x="41.01" y="158.88" width="5.3" height="3.2"/></clipPath><clipPath id="97e4e530-bb9c-4c66-846e-a8c17662279a"><rect class="b4469934-c5be-4a9a-886f-a584085d9adf" x="39.18" y="158.88" width="5.3" height="3.2"/></clipPath><clipPath id="d7a94432-78dd-4450-b813-96052fa63296"><rect class="b4469934-c5be-4a9a-886f-a584085d9adf" x="67.19" y="157" width="5.12" height="3.75"/></clipPath><clipPath id="a284c227-95ca-4a43-acee-af20a9f10125"><rect class="b4469934-c5be-4a9a-886f-a584085d9adf" x="67.19" y="156.99" width="5.13" height="3.76"/></clipPath><clipPath id="a5bf3a14-53c3-46d5-b91d-ca8c1f9dc113"><rect class="b4469934-c5be-4a9a-886f-a584085d9adf" x="64.87" y="351.53" width="8.36" height="8.13"/></clipPath><clipPath id="7328e631-03c1-4c32-b602-c1f1f0b2325e"><rect class="b4469934-c5be-4a9a-886f-a584085d9adf" x="64.87" y="352.67" width="8.36" height="6.99"/></clipPath><clipPath id="609bc0bf-fc84-44cb-98d3-04257e11af6c"><rect class="b4469934-c5be-4a9a-886f-a584085d9adf" x="67.02" y="355.92" width="6.21" height="3.75"/></clipPath><clipPath id="e68b31d6-7864-436f-96b3-3c89b18875de"><rect class="b4469934-c5be-4a9a-886f-a584085d9adf" x="64.87" y="355.92" width="6.21" height="3.75"/></clipPath><clipPath id="19c88615-8d49-4c07-8d07-4ecab2a56989"><rect class="b4469934-c5be-4a9a-886f-a584085d9adf" x="17.52" y="549.87" width="12.66" height="12.32"/></clipPath><clipPath id="4920eefd-5e94-445d-9285-63667d5512e8"><rect class="b4469934-c5be-4a9a-886f-a584085d9adf" x="17.52" y="551.59" width="12.66" height="10.6"/></clipPath><clipPath id="e4d8cea4-c0b1-4b18-95f5-c07a3c13ad93"><rect class="b4469934-c5be-4a9a-886f-a584085d9adf" x="20.77" y="556.51" width="9.4" height="5.68"/></clipPath><clipPath id="fda0d075-07e7-4cf6-b842-de665859b3da"><rect class="b4469934-c5be-4a9a-886f-a584085d9adf" x="20.77" y="556.51" width="9.4" height="5.68"/></clipPath><clipPath id="bed6d1ab-407f-47fb-858c-6399fea0643c"><rect class="b4469934-c5be-4a9a-886f-a584085d9adf" x="17.52" y="556.51" width="9.4" height="5.68"/></clipPath></defs><title>Asset 7</title><g id="85a9e15c-c043-437f-9006-13a3fba6c41e" data-name="Layer 2"><g id="ee73df59-94f4-468c-a425-16322659d066" data-name="Layer 1"><rect class="3d3f3420-335e-4731-ab9a-621e3c24809f" width="90.33" height="42.08"/><text class="2ab271ca-d420-48b7-8f40-9f74b89b35d9" transform="translate(11.27 15.18)">KENTUCKY STARTUP <tspan class="2281b1b0-d1f8-4d93-8510-5651a88feca9"><tspan x="0" y="14.99">PIPELINE</tspan></tspan></text><path class="48ddfc9a-f0e1-4427-8935-fe9cc55a564c" d="M51.48,614.44"/><polyline class="48ddfc9a-f0e1-4427-8935-fe9cc55a564c" points="38.34 481.99 38.34 488.09 37.01 488.09 37.01 489.59 35.56 489.59 35.56 496.85 37.01 496.85 37.01 498.36 38.36 498.41 38.36 518.27"/><polyline class="48ddfc9a-f0e1-4427-8935-fe9cc55a564c" points="52.13 518.37 52.13 500.05 52.13 498.47 53.73 498.47 53.73 496.96 55.18 496.96 55.18 489.71 53.73 489.71 53.73 488.21 52.42 488.21 52.34 481.99"/><path class="48ddfc9a-f0e1-4427-8935-fe9cc55a564c" d="M63.11,126.92"/><polyline class="48ddfc9a-f0e1-4427-8935-fe9cc55a564c" points="53.75 106.26 55.05 106.26 55.05 104.75 56.51 104.75 56.51 97.49 55.05 97.49 55.05 95.99 53.75 95.99 53.75 92.56 57.29 92.56 57.29 82.63 36.73 82.63 36.73 92.56 40.27 92.56 40.27 95.99 38.93 95.99 38.93 97.49 37.48 97.49 37.48 104.75 38.93 104.75 38.93 106.26 40.27 106.26 40.27 127.71"/><line class="48ddfc9a-f0e1-4427-8935-fe9cc55a564c" x1="53.46" y1="105.53" x2="53.46" y2="127.71"/><line class="aa675a67-4d9e-4c2a-ad79-54ec4419227f" x1="84.97" y1="151.32" x2="84.97" y2="150.4"/><polyline class="aa675a67-4d9e-4c2a-ad79-54ec4419227f" points="59.82 127.37 59.82 125.36 61.1 125.36 61.1 124.29 66.98 124.29 66.98 125.36 68.26 125.36 68.26 127.37 85.45 127.37 85.45 150.81 9.47 150.81 9.47 127.37 27.14 127.37 27.14 126.43 27.1 126.43 27.1 125.11 28.41 125.11 28.41 124.29 34.3 124.29 34.3 125.11 35.53 125.11 35.53 125.36 35.58 125.36 35.58 127.37"/><path class="48ddfc9a-f0e1-4427-8935-fe9cc55a564c" d="M34.75,127.37l0-2.25H33.48v-.83H27.59v.83H26.28v1.31h0v.94H8.64v40.89"/><line class="48ddfc9a-f0e1-4427-8935-fe9cc55a564c" x1="52.72" y1="127.71" x2="59.73" y2="127.71"/><line class="48ddfc9a-f0e1-4427-8935-fe9cc55a564c" x1="34.02" y1="127.85" x2="41.03" y2="127.85"/><polyline class="aa675a67-4d9e-4c2a-ad79-54ec4419227f" points="58.77 230.28 58.77 228.27 60.05 228.27 60.05 227.2 65.93 227.2 65.93 228.27 67.21 228.27 67.21 230.28 84.4 230.28 84.4 253.72 8.41 253.72 8.41 230.28 26.09 230.28 26.09 229.34 26.05 229.34 26.05 228.02 27.36 228.02 27.36 227.2 33.25 227.2 33.25 228.02 34.48 228.02 34.48 228.27 34.52 228.27 34.52 230.28"/><rect class="aa675a67-4d9e-4c2a-ad79-54ec4419227f" x="8.42" y="250.24" width="76.15" height="0.87"/><a xlink:href="./preseed/"><text class="7b9499a0-9fac-4bbb-95cc-fe07b8c047a1" transform="translate(16.39 241.46)">PRE-SEED FUNDING</text></a><path class="48ddfc9a-f0e1-4427-8935-fe9cc55a564c" d="M39.93,194.5"/><polyline class="48ddfc9a-f0e1-4427-8935-fe9cc55a564c" points="84.23 250.67 84.23 229.99 67.12 229.99 67.12 228.22 65.85 228.22 65.85 227.27 59.99 227.27 59.99 228.22 58.72 228.22 58.72 229.99 53.12 230.01"/><line class="48ddfc9a-f0e1-4427-8935-fe9cc55a564c" x1="84.23" y1="268.74" x2="84.23" y2="248.06"/><polyline class="48ddfc9a-f0e1-4427-8935-fe9cc55a564c" points="39.93 198.89 38.59 198.89 38.59 200.39 37.13 200.39 37.13 207.65 38.59 207.65 38.59 209.15 39.93 209.2 39.93 230.66"/><polyline class="48ddfc9a-f0e1-4427-8935-fe9cc55a564c" points="8.64 168.26 8.64 195.24 39.78 195.24 39.78 196.58"/><path class="48ddfc9a-f0e1-4427-8935-fe9cc55a564c" d="M60.81,194.5"/><polyline class="48ddfc9a-f0e1-4427-8935-fe9cc55a564c" points="52.91 230.76 52.91 210.84 52.91 209.27 54.51 209.27 54.51 207.76 55.96 207.76 55.96 200.5 54.51 200.5 54.51 199 53.2 199 53.13 195.24 84.63 195.24 84.63 127.37 67.44 127.37 67.44 125.36 66.16 125.36 66.16 124.29 60.27 124.29 60.27 125.36 59 125.36 59 127.37"/><path class="03070e34-00e3-4471-b3e4-cad517302d99" d="M32.88,335.06c-.81,0-1.46.21-1.46.45s.66.42,1.47.41,1.46-.21,1.46-.45-.66-.42-1.47-.41"/><path class="03070e34-00e3-4471-b3e4-cad517302d99" d="M35.54,335.07c-.85,0-1.53.21-1.53.45s.69.42,1.54.41,1.53-.21,1.53-.45-.69-.42-1.54-.41"/><line class="03070e34-00e3-4471-b3e4-cad517302d99" x1="34.35" y1="339.07" x2="34.3" y2="335.31"/><line class="c3318de2-b109-4da1-97b5-0fa8b5501946" x1="34.35" y1="339.07" x2="34.3" y2="335.31"/><rect class="03070e34-00e3-4471-b3e4-cad517302d99" x="46.22" y="335.88" width="8.47" height="1.89"/><rect class="03070e34-00e3-4471-b3e4-cad517302d99" x="47.5" y="334.94" width="5.91" height="1.89"/><rect class="aa675a67-4d9e-4c2a-ad79-54ec4419227f" x="7" y="345.87" width="77.11" height="0.81"/><polyline class="4243f4c7-d692-4972-a0ab-1afeea0afe5c" points="58.03 325.38 58.03 323.59 59.31 323.59 59.31 322.64 65.22 322.64 65.22 323.59 66.5 323.59 66.5 325.38 83.76 325.38 83.76 346.23 7.46 346.23 7.46 325.38 25.21 325.38 25.21 324.54 25.17 324.54 25.17 323.37 26.49 323.37 26.49 322.64 32.4 322.64 32.4 323.37 33.64 323.37 33.64 323.59 33.68 323.59 33.68 325.38"/><a xlink:href="./accelerators/"><text class="2c89bf5c-dee3-469f-bcb1-8e79c84386e0" transform="translate(21.21 335.74)">ACCELERATORS</text></a><polyline class="48ddfc9a-f0e1-4427-8935-fe9cc55a564c" points="39.06 294.98 37.66 294.97 37.66 296.47 36.21 296.47 36.21 303.73 37.66 303.73 37.66 305.23 39.01 305.28 39.01 325.15 39.01 325.38 33.65 325.38 33.64 323.59 33.64 323.59 33.64 323.37 32.4 323.37 32.4 322.64 26.49 322.64 26.49 323.37 25.17 323.37 25.17 324.54 25.21 324.54 25.21 325.38 7.6 325.38 7.55 346.73 7.6 356.15 7.6 369.07"/><polyline class="48ddfc9a-f0e1-4427-8935-fe9cc55a564c" points="39.93 229.91 34.55 229.99 34.55 228.22 34.55 228.22 34.55 228 33.32 228 33.32 227.27 27.46 227.27 27.46 228 26.15 228 26.15 229.16 26.19 229.16 26.19 229.99 8.74 229.99 8.59 289.83 39.99 290.01 39.08 290.01"/><polyline class="aa675a67-4d9e-4c2a-ad79-54ec4419227f" points="57.78 517.81 57.78 516.02 59.06 516.02 59.06 515.07 64.98 515.07 64.98 516.02 66.26 516.02 66.26 517.81 83.54 517.81 83.54 538.68 7.17 538.68 7.17 517.81 24.93 517.81 24.93 516.97 24.89 516.97 24.89 515.8 26.21 515.8 26.21 515.07 32.13 515.07 32.13 515.8 33.37 515.8 33.37 516.02 33.41 516.02 33.41 517.81"/><path class="48ddfc9a-f0e1-4427-8935-fe9cc55a564c" d="M7.53,377.46"/><path class="48ddfc9a-f0e1-4427-8935-fe9cc55a564c" d="M7.59,351.36"/><polyline class="aa675a67-4d9e-4c2a-ad79-54ec4419227f" points="57.82 422.38 57.82 420.59 59.1 420.59 59.1 419.64 65.03 419.64 65.03 420.59 66.31 420.59 66.31 422.38 83.62 422.38 83.62 443.29 7.13 443.29 7.13 422.38 24.91 422.38 24.91 421.55 24.88 421.55 24.88 420.37 26.2 420.37 26.2 419.64 32.12 419.64 32.12 420.37 33.37 420.37 33.37 420.59 33.41 420.59 33.41 422.38"/><a xlink:href="./investors/"><text class="7ff8d285-a375-4758-ad01-9f5945df6f91" transform="translate(15.24 433.77)">ANGEL INVESTORS</text></a><polyline class="48ddfc9a-f0e1-4427-8935-fe9cc55a564c" points="52.35 482.91 59.88 482.91 59.88 482.92 83.62 482.92 83.62 457"/><polyline class="48ddfc9a-f0e1-4427-8935-fe9cc55a564c" points="7.52 359.65 7.46 385.75 38.35 385.86 38.34 386.43 38.34 391.4 37.02 391.4 37.02 392.9 35.56 392.9 35.56 400.16 37.02 400.16 37.02 401.67 38.36 401.71 38.36 421.58 38.36 422.38 33.4 422.38 33.37 420.59 33.37 420.59 33.37 420.37 32.12 420.37 32.12 419.64 26.2 419.64 26.2 420.37 24.88 420.37 24.88 421.55 24.92 421.55 24.92 422.38 7.26 422.38 7.13 482.91 38.36 482.91"/><polyline class="48ddfc9a-f0e1-4427-8935-fe9cc55a564c" points="83.62 444.05 83.62 422.38 66.31 422.38 66.31 420.59 65.03 420.59 65.03 419.64 59.1 419.64 59.1 420.59 57.82 420.59 57.82 422.38 52.14 422.38 52.14 421.68 52.14 403.36 52.14 401.78 53.73 401.78 53.73 400.27 55.19 400.27 55.19 393.02 53.73 393.02 53.73 391.52 52.43 391.52 52.35 386.26 52.34 385.75 60.08 385.75 60.08 385.75 83.76 385.75 83.76 325.38 66.5 325.38 66.5 323.59 65.22 323.59 65.22 322.64 59.31 322.64 59.31 323.59 58.03 323.59 58.03 325.38 52.78 325.38 52.78 325.25 52.78 306.92 52.78 305.35 54.38 305.35 54.38 303.84 55.83 303.84 55.83 296.58 54.38 296.58 54.38 295.08 53.07 295.08 53 289.83 53 289.83 60.76 289.83 60.76 289.84 84.23 289.84 84.23 263.48"/><line class="48ddfc9a-f0e1-4427-8935-fe9cc55a564c" x1="83.62" y1="466.01" x2="83.62" y2="440.09"/><rect class="aa675a67-4d9e-4c2a-ad79-54ec4419227f" x="6.85" y="538.32" width="77.04" height="0.81"/><a xlink:href="./resources/"><text class="510ad4fb-235c-4346-a867-c572adc953dd" transform="translate(17.28 532.08)">TECH RESOURCES</text></a><polyline class="48ddfc9a-f0e1-4427-8935-fe9cc55a564c" points="39.29 517.81 33.39 517.81 33.37 516.02 33.37 516.02 33.37 515.8 32.13 515.8 32.13 515.07 26.21 515.07 26.21 515.8 24.89 515.8 24.89 516.97 24.93 516.97 24.93 517.81 7.3 517.81 7.26 539.18 7.3 544.09 7.25 559.45"/><polyline class="48ddfc9a-f0e1-4427-8935-fe9cc55a564c" points="51.48 596.12 51.48 594.54 53.08 594.54 53.08 593.04 54.53 593.04 54.53 585.78 53.08 585.78 53.08 584.28 51.77 584.28 51.69 578.24 51.8 578.24 59.84 578.23 59.84 578.24 83.54 578.24 83.54 517.81 66.26 517.81 66.26 516.02 64.98 516.02 64.98 515.07 59.06 515.07 59.06 516.02 57.78 516.02 57.78 517.81 51.19 517.81 51.71 517.81 52.51 517.81"/><line class="48ddfc9a-f0e1-4427-8935-fe9cc55a564c" x1="83.54" y1="558.56" x2="83.54" y2="570.53"/><path class="03070e34-00e3-4471-b3e4-cad517302d99" d="M16.51,620.11"/><path class="c3318de2-b109-4da1-97b5-0fa8b5501946" d="M16.51,620.11"/><rect class="aa675a67-4d9e-4c2a-ad79-54ec4419227f" x="6.09" y="635.7" width="78.39" height="1.56"/><polyline class="aa675a67-4d9e-4c2a-ad79-54ec4419227f" points="58.29 614.89 58.29 613.07 59.59 613.07 59.59 612.11 65.59 612.11 65.59 613.07 66.89 613.07 66.89 614.89 84.43 614.89 84.43 636.08 6.92 636.08 6.92 614.89 24.95 614.89 24.95 614.04 24.91 614.04 24.91 612.85 26.25 612.85 26.25 612.11 32.25 612.11 32.25 612.85 33.52 612.85 33.52 613.07 33.52 613.07 33.52 614.89"/><a xlink:href="./venture/"><text class="4678826b-fd7b-485b-93cd-340c62bf55a7" transform="translate(14.33 626.37)">VENTURE CAPITAL</text></a><polyline class="48ddfc9a-f0e1-4427-8935-fe9cc55a564c" points="7.22 552.11 7.16 578.23 37.68 578.23 37.68 578.24 37.68 584.16 36.35 584.16 36.35 585.66 34.9 585.66 34.9 592.92 36.35 592.92 36.35 594.42 37.7 594.47 37.7 614.34 37.7 614.85 33.23 614.85 33.23 613.03 33.23 613.03 33.23 612.81 31.97 612.81 31.97 612.06 25.97 612.06 25.97 612.81 24.63 612.81 24.63 614 24.66 614 24.66 614.85 6.78 614.85 6.64 614.85 6.64 676.17 60.09 676.17 60.09 676.18 84.15 676.18 84.15 649.92"/><line class="48ddfc9a-f0e1-4427-8935-fe9cc55a564c" x1="51.49" y1="614.85" x2="51.49" y2="614.85"/><polyline class="48ddfc9a-f0e1-4427-8935-fe9cc55a564c" points="84.15 636.79 84.15 635.66 84.15 614.85 66.61 614.85 66.61 613.03 65.31 613.03 65.31 612.06 59.31 612.06 59.31 613.03 58.01 613.03 58.01 614.85"/><line class="48ddfc9a-f0e1-4427-8935-fe9cc55a564c" x1="84.15" y1="649.92" x2="84.15" y2="636.79"/><line class="48ddfc9a-f0e1-4427-8935-fe9cc55a564c" x1="51.5" y1="614.44" x2="51.5" y2="596.12"/><line class="48ddfc9a-f0e1-4427-8935-fe9cc55a564c" x1="58.3" y1="614.85" x2="50.54" y2="614.85"/><line class="48ddfc9a-f0e1-4427-8935-fe9cc55a564c" x1="39.06" y1="295.28" x2="39.06" y2="290.03"/><line class="48ddfc9a-f0e1-4427-8935-fe9cc55a564c" x1="39.78" y1="195.24" x2="39.78" y2="199.84"/><a xlink:href="./entry/"><text class="1b99a1cd-dd30-4682-a463-e93bec24f741" transform="translate(20.21 139.54)">ENTRY POINTS</text></a><text class="3c70a2ff-c9ca-415d-b276-d576d530429d" transform="translate(13.95 147.02)">Team | Feedback | Grants | Events</text><path class="78c448d1-52c8-40e3-a55e-f61d0fd728a8" d="M45,65.92a5.14,5.14,0,0,1,0-10.28h3.11a5.14,5.14,0,0,1,0,10.28H45Zm0-1.06h0Zm3.09,0h0ZM44,60.78a4.09,4.09,0,0,0,2.54,3.76,4.07,4.07,0,0,0,0-7.54A4.08,4.08,0,0,0,44,60.78h0Zm5.06,0h0Zm0,0h0Z"/><path class="78c448d1-52c8-40e3-a55e-f61d0fd728a8" d="M45,64.36a5.14,5.14,0,0,1,0-10.28h3.12a5.14,5.14,0,0,1,0,10.28H45Zm3.11-1.07h0ZM44,59.23A4.07,4.07,0,0,0,46.51,63,4.08,4.08,0,0,0,49,59.21h0a4.07,4.07,0,0,0-2.54-3.76A4.08,4.08,0,0,0,44,59.22h0Zm5.06,0h0Z"/><path class="78c448d1-52c8-40e3-a55e-f61d0fd728a8" d="M44.94,62.71a4.61,4.61,0,0,1-4.35-6.14l.25-.71a4.61,4.61,0,0,1,4.33-3.07h2.68a4.61,4.61,0,0,1,4.34,3l.26.71a4.61,4.61,0,0,1-4.32,6.17Z"/><path class="78c448d1-52c8-40e3-a55e-f61d0fd728a8" d="M46.56,78.84a10.32,10.32,0,0,1-6.9-18c.21-.22.35-.39.45-.51a4.61,4.61,0,0,1,4.34-3.09h4.17a4.61,4.61,0,0,1,4.32,3,9.37,9.37,0,0,0,.69.77,10.32,10.32,0,0,1-7,17.83h0Z"/><path class="3d3f3420-335e-4731-ab9a-621e3c24809f" d="M44.43,60.78a.53.53,0,0,1,.53-.53h3.1a.53.53,0,1,1,0,1.06H45a.53.53,0,0,1-.53-.53"/><path class="3d3f3420-335e-4731-ab9a-621e3c24809f" d="M44.42,59.22a.53.53,0,0,1,.53-.53H48a.53.53,0,0,1,0,1.06H45a.53.53,0,0,1-.53-.53"/><polygon class="3d3f3420-335e-4731-ab9a-621e3c24809f" points="46.51 58.1 46.54 58.1 48.11 58.09 47.85 57.38 46.54 57.39 46.51 57.39 45.19 57.39 44.94 58.1 46.51 58.1"/><path class="3d3f3420-335e-4731-ab9a-621e3c24809f" d="M50.41,64.32h0c-1.8-1.83-1.79-2.46-1.79-2.46H44.46V62a6.48,6.48,0,0,1-1.59,2.18,5.71,5.71,0,1,0,7.54.14ZM46.83,73.6a4.87,4.87,0,0,1-3.5-1.46,5.5,5.5,0,0,0,7.79-5.75,4.89,4.89,0,0,1-4.29,7.21Z"/><text class="4b6db9ad-329e-4bee-9d0f-c258a1175e40" transform="translate(25.68 633.6)">Money | Experience</text><text class="4f56b5a8-b770-4318-9e40-c012be39a0b8" transform="translate(11.46 440.09)">Money | Connections | Experience</text><text class="baae68d8-35fb-456f-ad40-75c4c9d9efa6" transform="translate(11.58 342.75)">Money | Mentorship | Tech Resources</text><text class="78eb8727-3ee0-406c-a21a-96acbf6d8a52" transform="translate(23.61 249.2)">Money | Connections</text></g><g id="86bfea90-05b9-40fe-9614-461e606b085f" data-name="IMG"><g id="b72180f1-2aae-4942-9f15-bc8e868482db" data-name="entry_points"><g id="49ec7ccd-88de-4798-819c-9cea7c76bb96" data-name="5_across"><image width="472" height="217" transform="translate(35.69 170.07) scale(0.03 0.03)" xlink:href="./assets/Asset 71.png"/></g><g id="7a365b9b-eb30-46b5-9ca4-fa01a9bff167" data-name="kstc"><g class="14103235-ed54-4938-8236-da10152479b4"><image width="109" height="115" transform="translate(14.83 155.78) scale(0.06)" xlink:href="./assets/Asset 72.png"/></g><text class="70833646-a5ba-4daf-afb8-26b0e2930ec1" transform="translate(16.35 164.11)"><tspan class="e8bfd142-507b-40a2-a043-87f645c40b4e">KST</tspan><tspan x="2.55" y="0">C</tspan></text></g><g id="ac0ca7d9-90ae-43ec-9cc8-98fd0ab780ea" data-name="sbir_sttr"><rect class="f4b9ce27-5146-41a5-89b6-77ac28e8e3aa" x="59.95" y="169.03" width="20.47" height="7.68"/><path class="604e0656-8473-4765-9723-2833e9fb8e66" d="M64.4,172.46a.12.12,0,0,1-.16,0,.11.11,0,0,1,0-.16.12.12,0,0,1,.16,0A.11.11,0,0,1,64.4,172.46Z"/><path class="ff324e2c-64ff-4378-acab-36dbfb9a815b" d="M63,169.66a.11.11,0,0,1-.14,0,.1.1,0,0,1,0-.14.11.11,0,0,1,.14,0A.1.1,0,0,1,63,169.66Z"/><path class="359dad58-783a-4d10-92dd-73de8c94b623" d="M63.41,170a.12.12,0,0,1-.16,0,.11.11,0,0,1,0-.16.12.12,0,0,1,.16,0A.11.11,0,0,1,63.41,170Z"/><path class="cf17f35c-6f05-4f3b-af64-a51146bb53d6" d="M63.79,170.43a.15.15,0,0,1-.2,0,.14.14,0,0,1,0-.2.15.15,0,0,1,.2,0A.14.14,0,0,1,63.79,170.43Z"/><path class="600492a9-9f18-4808-b058-747fc371630e" d="M64.59,172a.15.15,0,0,1-.2,0,.14.14,0,0,1,0-.2.15.15,0,0,1,.2,0A.14.14,0,0,1,64.59,172Z"/><path class="90c39c7f-76c5-44e6-b229-25741075e1a2" d="M64.5,171.56a.2.2,0,0,1-.28-.05.19.19,0,0,1,.05-.27.2.2,0,0,1,.28.05A.19.19,0,0,1,64.5,171.56Z"/><path class="47e1274b-2683-47b6-935c-76398b4dea21" d="M64.22,171a.27.27,0,0,1-.36-.07.25.25,0,0,1,.07-.35.27.27,0,0,1,.36.07A.25.25,0,0,1,64.22,171Z"/><path class="604e0656-8473-4765-9723-2833e9fb8e66" d="M64.21,172a.12.12,0,0,1-.15.05.11.11,0,0,1-.05-.15.12.12,0,0,1,.15-.05A.11.11,0,0,1,64.21,172Z"/><path class="ff324e2c-64ff-4378-acab-36dbfb9a815b" d="M61.59,170.26a.11.11,0,0,1-.14,0,.1.1,0,0,1,0-.13.11.11,0,0,1,.14,0A.1.1,0,0,1,61.59,170.26Z"/><path class="359dad58-783a-4d10-92dd-73de8c94b623" d="M62.1,170.39a.12.12,0,0,1-.15.05.11.11,0,0,1-.06-.15.12.12,0,0,1,.15-.05A.11.11,0,0,1,62.1,170.39Z"/><path class="cf17f35c-6f05-4f3b-af64-a51146bb53d6" d="M62.64,170.57a.14.14,0,0,1-.18.1.14.14,0,0,1-.1-.17.14.14,0,0,1,.18-.1A.14.14,0,0,1,62.64,170.57Z"/><path class="600492a9-9f18-4808-b058-747fc371630e" d="M64.16,171.56a.14.14,0,0,1-.18.1.14.14,0,0,1-.1-.17.14.14,0,0,1,.18-.1A.14.14,0,0,1,64.16,171.56Z"/><path class="90c39c7f-76c5-44e6-b229-25741075e1a2" d="M63.84,171.19a.2.2,0,0,1-.27.09.19.19,0,0,1-.09-.26.2.2,0,0,1,.27-.09A.19.19,0,0,1,63.84,171.19Z"/><path class="47e1274b-2683-47b6-935c-76398b4dea21" d="M63.33,170.89A.26.26,0,0,1,63,171a.25.25,0,0,1-.12-.34.27.27,0,0,1,.35-.12A.25.25,0,0,1,63.33,170.89Z"/><path class="604e0656-8473-4765-9723-2833e9fb8e66" d="M63.77,171.7a.11.11,0,0,1-.11.12.11.11,0,0,1-.12-.1.11.11,0,0,1,.11-.12A.11.11,0,0,1,63.77,171.7Z"/><path class="ff324e2c-64ff-4378-acab-36dbfb9a815b" d="M60.6,171.46a.1.1,0,1,1-.11-.09A.1.1,0,0,1,60.6,171.46Z"/><path class="359dad58-783a-4d10-92dd-73de8c94b623" d="M61.11,171.32a.12.12,0,1,1-.12-.1A.11.11,0,0,1,61.11,171.32Z"/><path class="cf17f35c-6f05-4f3b-af64-a51146bb53d6" d="M61.66,171.21a.14.14,0,0,1-.1.17.14.14,0,0,1-.17-.1.14.14,0,0,1,.1-.17A.14.14,0,0,1,61.66,171.21Z"/><path class="600492a9-9f18-4808-b058-747fc371630e" d="M63.49,171.33a.14.14,0,0,1-.1.17.14.14,0,0,1-.17-.1.14.14,0,0,1,.1-.17A.14.14,0,0,1,63.49,171.33Z"/><path class="90c39c7f-76c5-44e6-b229-25741075e1a2" d="M63,171.17a.2.2,0,0,1-.18.21.2.2,0,0,1-.22-.18.2.2,0,0,1,.18-.21A.2.2,0,0,1,63,171.17Z"/><path class="47e1274b-2683-47b6-935c-76398b4dea21" d="M62.43,171.15a.26.26,0,0,1-.24.27.26.26,0,0,1-.28-.23.26.26,0,0,1,.52,0Z"/><path class="604e0656-8473-4765-9723-2833e9fb8e66" d="M63.27,171.66a.11.11,0,0,1,0,.16.12.12,0,0,1-.16,0,.11.11,0,0,1,0-.16A.12.12,0,0,1,63.27,171.66Z"/><path class="ff324e2c-64ff-4378-acab-36dbfb9a815b" d="M60.4,173a.1.1,0,0,1,0,.14.11.11,0,0,1-.14,0,.1.1,0,0,1,0-.14A.11.11,0,0,1,60.4,173Z"/><path class="359dad58-783a-4d10-92dd-73de8c94b623" d="M60.77,172.62a.11.11,0,0,1,0,.16.12.12,0,0,1-.16,0,.11.11,0,0,1,0-.16A.12.12,0,0,1,60.77,172.62Z"/><path class="cf17f35c-6f05-4f3b-af64-a51146bb53d6" d="M61.19,172.26a.14.14,0,0,1,0,.2.15.15,0,0,1-.2,0,.14.14,0,0,1,0-.2A.15.15,0,0,1,61.19,172.26Z"/><path class="600492a9-9f18-4808-b058-747fc371630e" d="M62.84,171.48a.14.14,0,0,1,0,.2.15.15,0,0,1-.2,0,.14.14,0,0,1,0-.2A.15.15,0,0,1,62.84,171.48Z"/><path class="90c39c7f-76c5-44e6-b229-25741075e1a2" d="M62.35,171.56a.19.19,0,0,1-.05.27.2.2,0,0,1-.28-.05.19.19,0,0,1,.05-.27A.2.2,0,0,1,62.35,171.56Z"/><path class="47e1274b-2683-47b6-935c-76398b4dea21" d="M61.82,171.83a.25.25,0,0,1-.07.35.27.27,0,0,1-.36-.07.25.25,0,0,1,.07-.35A.27.27,0,0,1,61.82,171.83Z"/><path class="604e0656-8473-4765-9723-2833e9fb8e66" d="M62.8,171.88a.11.11,0,0,1,.06.15.12.12,0,0,1-.15.05.11.11,0,0,1-.06-.15A.12.12,0,0,1,62.8,171.88Z"/><path class="ff324e2c-64ff-4378-acab-36dbfb9a815b" d="M61,174.44a.1.1,0,0,1,.05.13.11.11,0,0,1-.14,0,.1.1,0,0,1-.05-.13A.11.11,0,0,1,61,174.44Z"/><path class="359dad58-783a-4d10-92dd-73de8c94b623" d="M61.15,173.95a.11.11,0,0,1,.06.15.12.12,0,0,1-.15.06A.11.11,0,0,1,61,174,.12.12,0,0,1,61.15,173.95Z"/><path class="cf17f35c-6f05-4f3b-af64-a51146bb53d6" d="M61.32,173.42a.14.14,0,0,1,.1.17.14.14,0,0,1-.18.1.14.14,0,0,1-.1-.17A.14.14,0,0,1,61.32,173.42Z"/><path class="600492a9-9f18-4808-b058-747fc371630e" d="M62.33,171.94a.14.14,0,0,1,.1.17.14.14,0,0,1-.18.1.14.14,0,0,1-.1-.17A.14.14,0,0,1,62.33,171.94Z"/><path class="90c39c7f-76c5-44e6-b229-25741075e1a2" d="M62,172.25a.19.19,0,0,1,.1.26.2.2,0,0,1-.27.1.19.19,0,0,1-.1-.26A.2.2,0,0,1,62,172.25Z"/><path class="47e1274b-2683-47b6-935c-76398b4dea21" d="M61.65,172.74a.25.25,0,0,1,.13.34.26.26,0,0,1-.35.12.25.25,0,0,1-.13-.34A.26.26,0,0,1,61.65,172.74Z"/><path class="604e0656-8473-4765-9723-2833e9fb8e66" d="M62.53,172.25a.12.12,0,0,1,.13.1.12.12,0,1,1-.13-.1Z"/><path class="ff324e2c-64ff-4378-acab-36dbfb9a815b" d="M62.31,175.34a.1.1,0,0,1,.11.09.1.1,0,0,1-.09.11.1.1,0,1,1,0-.2Z"/><path class="359dad58-783a-4d10-92dd-73de8c94b623" d="M62.16,174.84a.11.11,0,1,1-.1.12A.11.11,0,0,1,62.16,174.84Z"/><path class="cf17f35c-6f05-4f3b-af64-a51146bb53d6" d="M62,174.31a.14.14,0,0,1,.18.1.14.14,0,0,1-.1.17.14.14,0,0,1-.18-.1A.14.14,0,0,1,62,174.31Z"/><path class="600492a9-9f18-4808-b058-747fc371630e" d="M62.15,172.53a.14.14,0,0,1,.18.1.14.14,0,0,1-.1.17.14.14,0,0,1-.18-.1A.14.14,0,0,1,62.15,172.53Z"/><path class="90c39c7f-76c5-44e6-b229-25741075e1a2" d="M62,173a.2.2,0,1,1-.18.21A.2.2,0,0,1,62,173Z"/><path class="47e1274b-2683-47b6-935c-76398b4dea21" d="M62,173.56a.26.26,0,0,1,.28.23.26.26,0,0,1-.24.28.26.26,0,0,1-.28-.23A.26.26,0,0,1,62,173.56Z"/><path class="604e0656-8473-4765-9723-2833e9fb8e66" d="M62.69,173.15a.12.12,0,0,1,.15-.05.11.11,0,0,1,.06.15.12.12,0,0,1-.15.05A.11.11,0,0,1,62.69,173.15Z"/><path class="ff324e2c-64ff-4378-acab-36dbfb9a815b" d="M65.31,174.91a.11.11,0,0,1,.14,0,.1.1,0,0,1,0,.13.11.11,0,0,1-.14,0A.1.1,0,0,1,65.31,174.91Z"/><path class="359dad58-783a-4d10-92dd-73de8c94b623" d="M64.8,174.78a.12.12,0,0,1,.15-.05.11.11,0,0,1,.05.15.12.12,0,0,1-.15.05A.11.11,0,0,1,64.8,174.78Z"/><path class="cf17f35c-6f05-4f3b-af64-a51146bb53d6" d="M64.27,174.61a.14.14,0,0,1,.18-.1.14.14,0,0,1,.1.17.14.14,0,0,1-.18.1A.14.14,0,0,1,64.27,174.61Z"/><path class="600492a9-9f18-4808-b058-747fc371630e" d="M62.75,173.61a.14.14,0,0,1,.18-.1.14.14,0,0,1,.1.17.14.14,0,0,1-.18.1A.14.14,0,0,1,62.75,173.61Z"/><path class="90c39c7f-76c5-44e6-b229-25741075e1a2" d="M63.07,174a.2.2,0,0,1,.27-.09.19.19,0,0,1,.09.26.2.2,0,0,1-.27.09A.19.19,0,0,1,63.07,174Z"/><path class="47e1274b-2683-47b6-935c-76398b4dea21" d="M63.57,174.28a.26.26,0,0,1,.35-.12.25.25,0,0,1,.12.34.26.26,0,0,1-.35.12A.25.25,0,0,1,63.57,174.28Z"/><path class="604e0656-8473-4765-9723-2833e9fb8e66" d="M63.09,173.45a.12.12,0,1,1,.12.1A.12.12,0,0,1,63.09,173.45Z"/><path class="ff324e2c-64ff-4378-acab-36dbfb9a815b" d="M66.26,173.7a.1.1,0,1,1,.11.09A.1.1,0,0,1,66.26,173.7Z"/><path class="359dad58-783a-4d10-92dd-73de8c94b623" d="M65.76,173.84a.11.11,0,0,1,.11-.12.12.12,0,0,1,.12.1.11.11,0,0,1-.11.12A.11.11,0,0,1,65.76,173.84Z"/><path class="cf17f35c-6f05-4f3b-af64-a51146bb53d6" d="M65.2,173.94a.14.14,0,0,1,.1-.17.14.14,0,0,1,.17.1.14.14,0,0,1-.1.17A.14.14,0,0,1,65.2,173.94Z"/><path class="600492a9-9f18-4808-b058-747fc371630e" d="M63.38,173.82a.14.14,0,0,1,.1-.17.14.14,0,0,1,.17.1.14.14,0,0,1-.1.17A.14.14,0,0,1,63.38,173.82Z"/><path class="90c39c7f-76c5-44e6-b229-25741075e1a2" d="M63.85,174a.2.2,0,0,1,.18-.21.2.2,0,1,1-.18.21Z"/><path class="47e1274b-2683-47b6-935c-76398b4dea21" d="M64.44,174a.26.26,0,1,1,.28.23A.26.26,0,0,1,64.44,174Z"/><path class="604e0656-8473-4765-9723-2833e9fb8e66" d="M63.64,173.5a.11.11,0,0,1,0-.16.12.12,0,0,1,.16,0,.11.11,0,0,1,0,.16A.12.12,0,0,1,63.64,173.5Z"/><path class="ff324e2c-64ff-4378-acab-36dbfb9a815b" d="M66.52,172.18a.1.1,0,0,1,0-.14.11.11,0,0,1,.14,0,.1.1,0,0,1,0,.14A.11.11,0,0,1,66.52,172.18Z"/><path class="359dad58-783a-4d10-92dd-73de8c94b623" d="M66.15,172.54a.11.11,0,0,1,0-.16.12.12,0,0,1,.16,0,.11.11,0,0,1,0,.16A.12.12,0,0,1,66.15,172.54Z"/><path class="cf17f35c-6f05-4f3b-af64-a51146bb53d6" d="M65.73,172.91a.14.14,0,0,1,0-.2.15.15,0,0,1,.2,0,.14.14,0,0,1,0,.2A.15.15,0,0,1,65.73,172.91Z"/><path class="600492a9-9f18-4808-b058-747fc371630e" d="M64.08,173.69a.14.14,0,0,1,0-.2.15.15,0,0,1,.2,0,.14.14,0,0,1,0,.2A.15.15,0,0,1,64.08,173.69Z"/><path class="90c39c7f-76c5-44e6-b229-25741075e1a2" d="M64.57,173.6a.19.19,0,0,1,.05-.27.2.2,0,0,1,.28.05.19.19,0,0,1-.05.27A.2.2,0,0,1,64.57,173.6Z"/><path class="47e1274b-2683-47b6-935c-76398b4dea21" d="M65.09,173.33a.25.25,0,0,1,.07-.35.27.27,0,0,1,.36.07.25.25,0,0,1-.07.35A.27.27,0,0,1,65.09,173.33Z"/><path class="604e0656-8473-4765-9723-2833e9fb8e66" d="M64.07,173.29a.11.11,0,0,1-.06-.15.12.12,0,0,1,.15-.06.11.11,0,0,1,.06.15A.12.12,0,0,1,64.07,173.29Z"/><path class="ff324e2c-64ff-4378-acab-36dbfb9a815b" d="M65.85,170.72a.1.1,0,0,1-.05-.13.1.1,0,0,1,.14,0,.1.1,0,0,1,.05.13A.11.11,0,0,1,65.85,170.72Z"/><path class="359dad58-783a-4d10-92dd-73de8c94b623" d="M65.73,171.22a.11.11,0,0,1-.06-.15.12.12,0,0,1,.15-.06.11.11,0,0,1,.06.15A.12.12,0,0,1,65.73,171.22Z"/><path class="cf17f35c-6f05-4f3b-af64-a51146bb53d6" d="M65.55,171.75a.14.14,0,0,1-.1-.17.14.14,0,0,1,.18-.1.14.14,0,0,1,.1.17A.14.14,0,0,1,65.55,171.75Z"/><path class="600492a9-9f18-4808-b058-747fc371630e" d="M64.55,173.23a.14.14,0,0,1-.1-.17.14.14,0,0,1,.18-.1.14.14,0,0,1,.1.17A.14.14,0,0,1,64.55,173.23Z"/><path class="90c39c7f-76c5-44e6-b229-25741075e1a2" d="M64.92,172.91a.19.19,0,0,1-.1-.26.2.2,0,0,1,.27-.1.19.19,0,0,1,.1.26A.2.2,0,0,1,64.92,172.91Z"/><path class="47e1274b-2683-47b6-935c-76398b4dea21" d="M65.23,172.42a.25.25,0,0,1-.13-.34.26.26,0,0,1,.35-.12.25.25,0,0,1,.13.34A.26.26,0,0,1,65.23,172.42Z"/><path class="604e0656-8473-4765-9723-2833e9fb8e66" d="M64.34,172.92a.12.12,0,0,1-.13-.1.12.12,0,1,1,.13.1Z"/><path class="ff324e2c-64ff-4378-acab-36dbfb9a815b" d="M64.56,169.84a.1.1,0,0,1-.11-.09.1.1,0,1,1,.11.09Z"/><path class="359dad58-783a-4d10-92dd-73de8c94b623" d="M64.71,170.33a.11.11,0,1,1,.1-.12A.11.11,0,0,1,64.71,170.33Z"/><path class="cf17f35c-6f05-4f3b-af64-a51146bb53d6" d="M64.83,170.87a.14.14,0,0,1-.18-.1.14.14,0,0,1,.1-.17.14.14,0,0,1,.18.1A.14.14,0,0,1,64.83,170.87Z"/><path class="600492a9-9f18-4808-b058-747fc371630e" d="M64.72,172.64a.14.14,0,0,1-.18-.1.14.14,0,0,1,.1-.17.14.14,0,0,1,.18.1A.14.14,0,0,1,64.72,172.64Z"/><path class="90c39c7f-76c5-44e6-b229-25741075e1a2" d="M64.88,172.19a.2.2,0,0,1-.22-.18.2.2,0,0,1,.18-.21.2.2,0,0,1,.22.18A.2.2,0,0,1,64.88,172.19Z"/><path class="47e1274b-2683-47b6-935c-76398b4dea21" d="M64.9,171.61a.26.26,0,0,1-.28-.23.26.26,0,0,1,.24-.28.26.26,0,0,1,.28.23A.26.26,0,0,1,64.9,171.61Z"/><path class="604e0656-8473-4765-9723-2833e9fb8e66" d="M62.49,172.73a.12.12,0,0,1,.16,0,.11.11,0,0,1,0,.16.12.12,0,0,1-.16,0A.11.11,0,0,1,62.49,172.73Z"/><path class="ff324e2c-64ff-4378-acab-36dbfb9a815b" d="M63.89,175.51a.11.11,0,0,1,.14,0,.1.1,0,0,1,0,.14.11.11,0,0,1-.14,0A.1.1,0,0,1,63.89,175.51Z"/><path class="359dad58-783a-4d10-92dd-73de8c94b623" d="M63.51,175.16a.12.12,0,0,1,.16,0,.11.11,0,0,1,0,.16.12.12,0,0,1-.16,0A.11.11,0,0,1,63.51,175.16Z"/><path class="cf17f35c-6f05-4f3b-af64-a51146bb53d6" d="M63.13,174.75a.15.15,0,0,1,.2,0,.14.14,0,0,1,0,.2.15.15,0,0,1-.2,0A.14.14,0,0,1,63.13,174.75Z"/><path class="600492a9-9f18-4808-b058-747fc371630e" d="M62.31,173.16a.15.15,0,0,1,.2,0,.14.14,0,0,1,0,.2.15.15,0,0,1-.2,0A.14.14,0,0,1,62.31,173.16Z"/><path class="90c39c7f-76c5-44e6-b229-25741075e1a2" d="M62.4,173.63a.2.2,0,0,1,.28,0,.19.19,0,0,1,0,.27.2.2,0,0,1-.28,0A.19.19,0,0,1,62.4,173.63Z"/><path class="47e1274b-2683-47b6-935c-76398b4dea21" d="M62.68,174.14a.27.27,0,0,1,.36.06.25.25,0,0,1-.06.35.27.27,0,0,1-.36-.06A.25.25,0,0,1,62.68,174.14Z"/><circle class="9b48a0e6-295d-483f-9624-70d507c470f0" cx="72.7" cy="172.11" r="0.14"/><path class="47e1274b-2683-47b6-935c-76398b4dea21" d="M68.33,172.46a.2.2,0,0,0-.07-.16.63.63,0,0,0-.24-.11,1,1,0,0,1-.39-.18.36.36,0,0,1-.14-.29.38.38,0,0,1,.15-.31.59.59,0,0,1,.39-.12.58.58,0,0,1,.4.14.41.41,0,0,1,.15.33h-.25a.25.25,0,0,0-.08-.2.32.32,0,0,0-.22-.07.3.3,0,0,0-.2.06.2.2,0,0,0-.07.16.18.18,0,0,0,.08.15.85.85,0,0,0,.26.11.91.91,0,0,1,.37.19.39.39,0,0,1,.13.3.37.37,0,0,1-.15.31.64.64,0,0,1-.4.12.69.69,0,0,1-.41-.13.4.4,0,0,1-.17-.36h.25a.25.25,0,0,0,.1.21.39.39,0,0,0,.24.07.35.35,0,0,0,.21-.06A.19.19,0,0,0,68.33,172.46Z"/><path class="47e1274b-2683-47b6-935c-76398b4dea21" d="M68.86,172.86V171.3h.51a.67.67,0,0,1,.4.11.37.37,0,0,1,.15.32.31.31,0,0,1-.06.19.36.36,0,0,1-.16.13.35.35,0,0,1,.23.13.39.39,0,0,1,.08.25.4.4,0,0,1-.14.33.62.62,0,0,1-.4.11Zm.26-.9h.28a.29.29,0,0,0,.19-.06.2.2,0,0,0,.07-.16.2.2,0,0,0-.07-.17.35.35,0,0,0-.21-.06h-.25Zm0,.19v.5h.35a.31.31,0,0,0,.21-.06.22.22,0,0,0,.07-.18.25.25,0,0,0-.07-.19.29.29,0,0,0-.2-.07h-.36Z"/><path class="47e1274b-2683-47b6-935c-76398b4dea21" d="M70.56,172.86H70.3V171.3h.26Z"/><path class="47e1274b-2683-47b6-935c-76398b4dea21" d="M71.19,172.22v.65h-.26V171.3h.54a.62.62,0,0,1,.4.12.41.41,0,0,1,.14.34.35.35,0,0,1-.06.21.43.43,0,0,1-.18.14.33.33,0,0,1,.19.14.44.44,0,0,1,.06.23v.13a.51.51,0,0,0,0,.13.19.19,0,0,0,.06.1v0h-.27a.17.17,0,0,1-.05-.11.93.93,0,0,1,0-.15v-.13a.26.26,0,0,0-.07-.19.25.25,0,0,0-.19-.07Zm0-.21h.26a.35.35,0,0,0,.23-.06.22.22,0,0,0,.07-.18.24.24,0,0,0-.07-.18.3.3,0,0,0-.22-.07h-.28Z"/><path class="47e1274b-2683-47b6-935c-76398b4dea21" d="M74.19,172.46a.21.21,0,0,0-.07-.16.63.63,0,0,0-.24-.11,1,1,0,0,1-.39-.18.36.36,0,0,1-.14-.29.38.38,0,0,1,.15-.31.59.59,0,0,1,.39-.12.59.59,0,0,1,.4.14.42.42,0,0,1,.15.33h-.25a.25.25,0,0,0-.08-.2.31.31,0,0,0-.22-.07.3.3,0,0,0-.2.06.2.2,0,0,0-.07.16.18.18,0,0,0,.08.15A.86.86,0,0,0,74,172a.91.91,0,0,1,.37.19.39.39,0,0,1,.13.3.37.37,0,0,1-.15.31.64.64,0,0,1-.4.12.69.69,0,0,1-.41-.13.4.4,0,0,1-.17-.36h.25a.25.25,0,0,0,.1.21.39.39,0,0,0,.24.07.35.35,0,0,0,.21-.06A.19.19,0,0,0,74.19,172.46Z"/><path class="47e1274b-2683-47b6-935c-76398b4dea21" d="M75.78,171.51h-.48v1.35H75v-1.35h-.47v-.21h1.22v.21Z"/><path class="47e1274b-2683-47b6-935c-76398b4dea21" d="M77.13,171.51h-.48v1.35h-.26v-1.35h-.47v-.21h1.22v.21Z"/><path class="47e1274b-2683-47b6-935c-76398b4dea21" d="M77.6,172.22v.65h-.26V171.3h.54a.61.61,0,0,1,.4.12.41.41,0,0,1,.14.34.35.35,0,0,1-.06.21.43.43,0,0,1-.18.14.33.33,0,0,1,.19.14.44.44,0,0,1,.06.23v.13a.51.51,0,0,0,0,.13.19.19,0,0,0,.06.1v0h-.27a.17.17,0,0,1-.05-.11,1,1,0,0,1,0-.15v-.13a.26.26,0,0,0-.07-.19.25.25,0,0,0-.19-.07Zm0-.21h.26a.35.35,0,0,0,.23-.06.23.23,0,0,0,.07-.18.24.24,0,0,0-.07-.18.3.3,0,0,0-.22-.07H77.6Z"/><path class="47e1274b-2683-47b6-935c-76398b4dea21" d="M69.94,174.9a.13.13,0,0,1,0,.11.19.19,0,0,1-.13,0h0v.15h-.09v-.43h.14a.19.19,0,0,1,.12,0A.12.12,0,0,1,69.94,174.9Zm-.21.07h0l.06,0a.06.06,0,0,0,0,0,.06.06,0,0,0,0,0l-.06,0h0V175Z"/><path class="47e1274b-2683-47b6-935c-76398b4dea21" d="M70.5,175a.24.24,0,0,1-.05.17.23.23,0,0,1-.31,0,.28.28,0,0,1,0-.33.2.2,0,0,1,.15-.06.2.2,0,0,1,.15.06A.24.24,0,0,1,70.5,175Zm-.32,0a.18.18,0,0,0,0,.11.1.1,0,0,0,.08,0c.07,0,.11,0,.11-.15s0-.15-.11-.15a.1.1,0,0,0-.08,0A.18.18,0,0,0,70.19,175Z"/><path class="47e1274b-2683-47b6-935c-76398b4dea21" d="M71.11,175.2H71l-.06-.23v0l-.06.23h-.1l-.11-.43h.09l.06.24,0,.11V175l.06-.24H71L71,175v0l.06-.24h.09Z"/><path class="47e1274b-2683-47b6-935c-76398b4dea21" d="M71.64,175.2h-.25v-.43h.25v.08h-.16v.1h.15V175h-.15v.11h.16Z"/><path class="47e1274b-2683-47b6-935c-76398b4dea21" d="M71.95,175v.17h-.09v-.43H72a.22.22,0,0,1,.13,0,.12.12,0,0,1,0,.1.12.12,0,0,1,0,.07l-.06,0,.13.19h-.1L72,175Zm0-.08H72a.05.05,0,0,0,0,0,0,0,0,0,0,0,0h-.09V175Z"/><path class="47e1274b-2683-47b6-935c-76398b4dea21" d="M72.61,175.2h-.25v-.43h.25v.08h-.16v.1h.15V175h-.15v.11h.16Z"/><path class="47e1274b-2683-47b6-935c-76398b4dea21" d="M73.17,175a.21.21,0,0,1-.06.16.25.25,0,0,1-.18.06h-.12v-.43h.14a.23.23,0,0,1,.17.06A.21.21,0,0,1,73.17,175Zm-.1,0c0-.09,0-.14-.12-.14h0v.28h0Q73.08,175.12,73.08,175Z"/><path class="47e1274b-2683-47b6-935c-76398b4dea21" d="M73.67,174.76h.14a.26.26,0,0,1,.13,0,.09.09,0,0,1,0,.08.11.11,0,0,1,0,.06l0,0h0l.06,0a.11.11,0,0,1,0,.07.11.11,0,0,1,0,.09.19.19,0,0,1-.12,0h-.16v-.44Zm.09.17h.11a0,0,0,0,0,0,0,0,0,0,0,0,0,0h-.11v.1Zm0,.07v.11h.12a.05.05,0,0,0,0,0s0-.05-.08-.05h-.06Z"/><path class="47e1274b-2683-47b6-935c-76398b4dea21" d="M74.32,174.94l.09-.18h.1l-.14.27v.17h-.09V175l-.14-.27h.1Z"/><path class="47e1274b-2683-47b6-935c-76398b4dea21" d="M75.22,175.08a.11.11,0,0,1,0,.09.19.19,0,0,1-.12,0l-.12,0v-.09l.07,0h.1a0,0,0,0,0,0,0v0l0,0L75,175,75,175l0,0a.12.12,0,0,1,0-.05.11.11,0,0,1,0-.09.16.16,0,0,1,.11,0h.06l.06,0,0,.07-.06,0H75a0,0,0,0,0,0,0,0,0,0,0,0,0,0l0,0,.06,0,.08.06A.12.12,0,0,1,75.22,175.08Z"/><path class="47e1274b-2683-47b6-935c-76398b4dea21" d="M75.41,174.76h.14a.26.26,0,0,1,.13,0,.09.09,0,0,1,0,.08.11.11,0,0,1,0,.06l0,0h0l.06,0a.11.11,0,0,1,0,.07.11.11,0,0,1,0,.09.19.19,0,0,1-.12,0h-.16v-.44Zm.09.17h.11a0,0,0,0,0,0,0,0,0,0,0,0,0,0h-.11v.1Zm0,.07v.11h.12a.05.05,0,0,0,0,0s0-.05-.08-.05h-.06Z"/><path class="47e1274b-2683-47b6-935c-76398b4dea21" d="M76.21,175.2l0-.1H76l0,.1h-.1l.15-.44h.11l.15.44Zm-.05-.18,0-.16v0L76,175Z"/><path class="9b48a0e6-295d-483f-9624-70d507c470f0" d="M68,174l-.09-.22h-.28l-.09.22h-.08l.28-.71h.07l.28.71Zm-.11-.3-.08-.22,0-.1,0,.1-.08.22Z"/><path class="9b48a0e6-295d-483f-9624-70d507c470f0" d="M69,174v-.34a.14.14,0,0,0,0-.09.11.11,0,0,0-.08,0,.13.13,0,0,0-.11,0,.2.2,0,0,0,0,.13V174h-.08v-.34a.14.14,0,0,0,0-.09.11.11,0,0,0-.08,0,.13.13,0,0,0-.11,0,.24.24,0,0,0,0,.15V174h-.08v-.53h.07v.07h0a.16.16,0,0,1,.06-.06l.09,0a.16.16,0,0,1,.16.09h0a.17.17,0,0,1,.07-.07l.1,0a.18.18,0,0,1,.13,0,.21.21,0,0,1,0,.15V174H69Z"/><path class="9b48a0e6-295d-483f-9624-70d507c470f0" d="M69.48,174a.24.24,0,0,1-.19-.07.28.28,0,0,1-.07-.2.31.31,0,0,1,.06-.2.21.21,0,0,1,.17-.08.2.2,0,0,1,.16.07.25.25,0,0,1,.06.17v.05h-.36a.21.21,0,0,0,0,.14.16.16,0,0,0,.13,0,.43.43,0,0,0,.17,0V174l-.08,0Zm0-.48a.13.13,0,0,0-.1,0,.19.19,0,0,0,0,.11h.28a.18.18,0,0,0,0-.12A.12.12,0,0,0,69.46,173.53Z"/><path class="9b48a0e6-295d-483f-9624-70d507c470f0" d="M70.15,173.47h.06v.07h-.06a.14.14,0,0,0-.11.05.19.19,0,0,0,0,.13V174h-.08v-.53H70v.1h0a.23.23,0,0,1,.07-.08A.16.16,0,0,1,70.15,173.47Z"/><path class="9b48a0e6-295d-483f-9624-70d507c470f0" d="M70.41,173.33a.06.06,0,0,1,0,0h.07a.05.05,0,0,1,0,0,.05.05,0,0,1,0,0h-.07A.06.06,0,0,1,70.41,173.33Zm.09.67h-.08v-.53h.08Z"/><path class="9b48a0e6-295d-483f-9624-70d507c470f0" d="M71,174a.23.23,0,0,1-.18-.07.29.29,0,0,1-.06-.2.3.3,0,0,1,.06-.2.23.23,0,0,1,.18-.07H71l.06,0,0,.07-.06,0H71q-.16,0-.16.21a.24.24,0,0,0,0,.15.14.14,0,0,0,.12.05l.14,0V174A.29.29,0,0,1,71,174Z"/><path class="9b48a0e6-295d-483f-9624-70d507c470f0" d="M71.64,174l0-.08h0a.22.22,0,0,1-.08.07l-.1,0a.18.18,0,0,1-.12,0,.15.15,0,0,1,0-.12q0-.16.26-.17h.09v0a.13.13,0,0,0,0-.09.11.11,0,0,0-.09,0,.35.35,0,0,0-.15,0l0-.06.09,0h.09a.2.2,0,0,1,.14,0,.17.17,0,0,1,0,.13V174Zm-.18-.06a.16.16,0,0,0,.12,0,.15.15,0,0,0,0-.11v0h-.08a.29.29,0,0,0-.14,0,.09.09,0,0,0,0,.08.08.08,0,0,0,0,.07Z"/><path class="9b48a0e6-295d-483f-9624-70d507c470f0" d="M72,173.3h0l0,.11,0,.12h-.06q0-.14,0-.24Z"/><path class="9b48a0e6-295d-483f-9624-70d507c470f0" d="M72.52,173.86a.13.13,0,0,1-.05.11.26.26,0,0,1-.15,0,.33.33,0,0,1-.16,0v-.07l.08,0h.08l.1,0a.07.07,0,0,0,0-.11l-.1-.05-.1,0,0,0a.12.12,0,0,1,0-.06.12.12,0,0,1,.05-.1.25.25,0,0,1,.14,0,.42.42,0,0,1,.17,0l0,.07-.14,0-.09,0a.06.06,0,0,0,0,0,.06.06,0,0,0,0,0l0,0,.09,0a.34.34,0,0,1,.13.07A.12.12,0,0,1,72.52,173.86Z"/><path class="9b48a0e6-295d-483f-9624-70d507c470f0" d="M73.52,173.82a.17.17,0,0,1-.07.15.29.29,0,0,1-.18.05.46.46,0,0,1-.19,0v-.08l.09,0h.1a.21.21,0,0,0,.12,0,.1.1,0,0,0,0-.09.11.11,0,0,0,0-.06l0,0-.1,0a.34.34,0,0,1-.14-.08.18.18,0,0,1,0-.13.16.16,0,0,1,.06-.13.26.26,0,0,1,.16,0,.48.48,0,0,1,.19,0l0,.07a.44.44,0,0,0-.17,0,.16.16,0,0,0-.1,0,.09.09,0,0,0,0,.08.12.12,0,0,0,0,.06l0,0,.1,0a.39.39,0,0,1,.15.08A.17.17,0,0,1,73.52,173.82Z"/><path class="9b48a0e6-295d-483f-9624-70d507c470f0" d="M74,174a.24.24,0,0,1-.18-.07.28.28,0,0,1-.07-.2.31.31,0,0,1,.06-.2.21.21,0,0,1,.17-.08.2.2,0,0,1,.16.07.25.25,0,0,1,.06.17v.05h-.36a.21.21,0,0,0,0,.14.16.16,0,0,0,.13,0,.43.43,0,0,0,.17,0V174l-.08,0Zm0-.48a.13.13,0,0,0-.1,0,.19.19,0,0,0,0,.11h.28a.18.18,0,0,0,0-.12A.12.12,0,0,0,73.94,173.53Z"/><path class="9b48a0e6-295d-483f-9624-70d507c470f0" d="M74.61,174a.24.24,0,0,1-.18-.07.28.28,0,0,1-.07-.2.31.31,0,0,1,.06-.2.21.21,0,0,1,.17-.08.2.2,0,0,1,.16.07.25.25,0,0,1,.06.17v.05h-.36a.21.21,0,0,0,0,.14.16.16,0,0,0,.13,0,.43.43,0,0,0,.17,0V174l-.08,0Zm0-.48a.13.13,0,0,0-.1,0,.19.19,0,0,0,0,.11h.28a.18.18,0,0,0,0-.12A.12.12,0,0,0,74.59,173.53Z"/><path class="9b48a0e6-295d-483f-9624-70d507c470f0" d="M75.4,173.93h0a.19.19,0,0,1-.17.08.2.2,0,0,1-.16-.07.31.31,0,0,1-.06-.2.32.32,0,0,1,.06-.2.19.19,0,0,1,.16-.07.19.19,0,0,1,.16.08h0v-.29h.08V174h-.07Zm-.16,0a.15.15,0,0,0,.12,0,.23.23,0,0,0,0-.14v0a.26.26,0,0,0,0-.16.14.14,0,0,0-.12,0,.12.12,0,0,0-.11.05.27.27,0,0,0,0,.15.26.26,0,0,0,0,.15A.13.13,0,0,0,75.24,173.95Z"/><path class="9b48a0e6-295d-483f-9624-70d507c470f0" d="M76.2,174h-.08v-.7h.39v.07H76.2v.26h.29v.07H76.2Z"/><path class="9b48a0e6-295d-483f-9624-70d507c470f0" d="M76.79,173.48v.34a.14.14,0,0,0,0,.1.12.12,0,0,0,.09,0,.15.15,0,0,0,.12,0,.23.23,0,0,0,0-.15v-.28h.08V174h-.07v-.07h0A.16.16,0,0,1,77,174l-.1,0a.2.2,0,0,1-.14,0,.2.2,0,0,1,0-.15v-.35Z"/><path class="9b48a0e6-295d-483f-9624-70d507c470f0" d="M77.75,174v-.34a.14.14,0,0,0,0-.1.12.12,0,0,0-.09,0,.15.15,0,0,0-.12,0,.23.23,0,0,0,0,.15V174h-.08v-.53h.07v.07h0a.16.16,0,0,1,.07-.06l.1,0a.2.2,0,0,1,.14,0,.2.2,0,0,1,0,.15V174Z"/><path class="9b48a0e6-295d-483f-9624-70d507c470f0" d="M78.42,173.93h0a.19.19,0,0,1-.17.08.2.2,0,0,1-.16-.07.31.31,0,0,1-.06-.2.32.32,0,0,1,.06-.2.19.19,0,0,1,.16-.07.19.19,0,0,1,.16.08h0v-.29h.08V174h-.07Zm-.16,0a.15.15,0,0,0,.12,0,.23.23,0,0,0,0-.14v0a.27.27,0,0,0,0-.16.14.14,0,0,0-.12,0,.12.12,0,0,0-.11.05.28.28,0,0,0,0,.15.26.26,0,0,0,0,.15A.13.13,0,0,0,78.26,173.95Z"/><path class="9b48a0e6-295d-483f-9624-70d507c470f0" d="M78.78,173.46h0v-.19h-.07v0h.16v0h-.07v.19Z"/><path class="9b48a0e6-295d-483f-9624-70d507c470f0" d="M79,173.46l-.07-.19h0s0,0,0,.05v.13h0v-.21h0l.07.17h0l.07-.17h0v.21h0v-.13s0,0,0-.05h0l-.07.18Z"/><rect class="b4469934-c5be-4a9a-886f-a584085d9adf" x="35.69" y="170.07" width="14.17" height="6.17"/></g><g id="c445ec84-5970-4fee-b8bd-8bcf27bcf78c" data-name="awesome_inc"><path class="7f87fe19-5a7f-4c18-9477-afd7b79e25ab" d="M43.8,163.23l.06-.34.05-.34s0,0,.05,0h.43s0,0,0,0c0,.42.09.84.14,1.26,0,0,0,0,0,0s0,0,0,0h-.28s0,0-.05-.05l-.07-.59a0,0,0,0,0,0,0l-.06.36c0,.09,0,.18,0,.27s0,0-.06,0h-.33s-.05,0-.06-.05c0-.21-.07-.42-.11-.64l0,.28c0,.12,0,.24,0,.37s0,0,0,0h-.28s0,0,0,0l.07-.63c0-.22,0-.43.07-.65,0,0,0,0,.05,0h.41s.06,0,.07.06c0,.22.06.44.1.67h0"/><path class="7f87fe19-5a7f-4c18-9477-afd7b79e25ab" d="M38.84,162.5v0a.65.65,0,0,0,0,.48c0,.12.08.25.12.37l.09-.48.07-.37s0,0,0,0h.35l-.11.47-.21.86s0,0-.06,0h-.34s-.05,0-.06,0-.07-.24-.1-.38a.51.51,0,0,0,0,.15c0,.07,0,.15-.05.22s0,.05-.06.05H38.1s0,0-.06,0l-.37-1.3v0H38s0,0,0,.06l.19.78,0,.07.09-.5.07-.37s0,0,0,0h.35"/><path class="7f87fe19-5a7f-4c18-9477-afd7b79e25ab" d="M47.5,163.18c0-.21,0-.41,0-.62,0,0,0-.06.06-.06h.26s0,0,0,0q0,.65,0,1.3s0,0,0,0h-.27a.08.08,0,0,1-.08,0l-.36-.62s0,0,0,.05c0,.19,0,.37,0,.56s0,.05-.05.05h-.27s0,0,0,0q0-.65,0-1.3s0,0,0,0H47a.09.09,0,0,1,.1.06l.35.63h0"/><path class="7f87fe19-5a7f-4c18-9477-afd7b79e25ab" d="M42.92,163.2a1.11,1.11,0,0,1,0,.33.4.4,0,0,1-.39.35,1.14,1.14,0,0,1-.36,0,.36.36,0,0,1-.29-.27,1.58,1.58,0,0,1,0-.59.92.92,0,0,1,0-.23.39.39,0,0,1,.34-.29,1.26,1.26,0,0,1,.37,0,.41.41,0,0,1,.33.37,1.39,1.39,0,0,1,0,.16c0,.05,0,.11,0,.16m-.76,0a1.51,1.51,0,0,0,0,.22.15.15,0,0,0,.07.12.2.2,0,0,0,.31-.15,1.61,1.61,0,0,0,0-.38c0-.17-.08-.22-.24-.19a.13.13,0,0,0-.12.11,1.28,1.28,0,0,0,0,.28"/><path class="7f87fe19-5a7f-4c18-9477-afd7b79e25ab" d="M41,163.57h.24c.07,0,.09,0,.09-.09s0-.09-.09-.09H41a.33.33,0,0,1-.37-.33,1.33,1.33,0,0,1,0-.22.32.32,0,0,1,.29-.32,1.44,1.44,0,0,1,.62,0,.05.05,0,0,1,0,.06,1.91,1.91,0,0,0,0,.19s0,0,0,0a3.91,3.91,0,0,0-.44,0c-.08,0-.1,0-.1.08s0,.1.1.11h.16a.33.33,0,0,1,.37.31.77.77,0,0,1,0,.32.29.29,0,0,1-.27.24,1.78,1.78,0,0,1-.6,0c-.06,0-.08,0-.07-.1a1.22,1.22,0,0,0,0-.18s0,0,0,0H41"/><path class="7f87fe19-5a7f-4c18-9477-afd7b79e25ab" d="M37.83,163.88h-.34s0,0,0,0l-.05-.17a0,0,0,0,0-.05,0H37a0,0,0,0,0-.05,0l0,.15s0,.06-.07.06h-.32l.15-.49.26-.84s0,0,.06,0h.34s0,0,.06,0l.4,1.34m-.74-.55h.18s0,0,0,0L37.2,163l-.11.36"/><path class="7f87fe19-5a7f-4c18-9477-afd7b79e25ab" d="M44.71,163.2q0-.19,0-.38a.28.28,0,0,1,.29-.31,4.64,4.64,0,0,1,.64,0s0,0,0,0,0,.15,0,.22,0,.05-.05.05h-.45a.13.13,0,0,0-.1.18s0,0,0,0l.42,0s.05,0,0,.05,0,.14,0,.21,0,.05-.05.05h-.41s0,0,0,0,0,.14.13.14h.42s.05,0,0,0,0,.15,0,.22,0,0,0,0a4.89,4.89,0,0,1-.65,0,.27.27,0,0,1-.28-.31q0-.19,0-.38"/><path class="7f87fe19-5a7f-4c18-9477-afd7b79e25ab" d="M39.6,163.2q0-.19,0-.38a.28.28,0,0,1,.3-.31,4.8,4.8,0,0,1,.63,0s0,0,0,0,0,.15,0,.23,0,0,0,0h-.45A.12.12,0,0,0,40,163s0,0,0,0l.41,0s.06,0,.06.06a2,2,0,0,0,0,.21s0,0-.05,0H40s0,0,0,.05,0,.14.13.14h.42s.05,0,.05.05a2,2,0,0,0,0,.21s0,.05,0,.05a6.1,6.1,0,0,1-.62,0,.28.28,0,0,1-.29-.31q0-.19,0-.38"/><path class="7f87fe19-5a7f-4c18-9477-afd7b79e25ab" d="M48.74,163.56h.17s.05,0,.05,0a1.79,1.79,0,0,0,0,.19s0,.05,0,.06a1.19,1.19,0,0,1-.39,0h-.14a.39.39,0,0,1-.35-.33,1.57,1.57,0,0,1,0-.76.39.39,0,0,1,.41-.32,1.36,1.36,0,0,1,.46.05.07.07,0,0,1,.05.08,1.32,1.32,0,0,0,0,.16s0,.07-.06.06a1.9,1.9,0,0,0-.37,0c-.1,0-.14,0-.15.13a1.33,1.33,0,0,0,0,.48c0,.1.07.14.17.14h.19"/><path class="7f87fe19-5a7f-4c18-9477-afd7b79e25ab" d="M46.59,163.19c0,.21,0,.43,0,.64,0,0,0,.05-.05.05h-.28s0,0,0,0q0-.65,0-1.3s0,0,0,0h.27s.05,0,.05.05c0,.21,0,.43,0,.64"/><polygon class="479fabac-4cb7-4c21-8700-d3ec2a060487" points="39.17 162.08 42.74 155.13 46.31 162.08 39.17 162.08"/><path class="73022ff7-95ac-4003-acce-8f41085e5b0e" d="M46.37,162.11H39.12l3.63-7.06ZM39.24,162h7l-3.51-6.83Z"/><g class="d0cb985e-796b-4ca2-9b8e-d05ed04b479f"><g class="0d16eaef-0436-4ab2-816c-58447b8f26c7"><polygon class="b1963066-3648-446f-ba2a-9c3782304d51" points="46.31 162.08 41.76 157.06 42.74 155.13 39.17 162.08 46.31 162.08"/></g></g><g class="6c431c65-c463-4ada-9aa8-4193a0a3397b"><g class="07c1cf39-0904-451e-8b65-5d68d54590f1"><polygon class="29b0cf28-f3e0-45f9-9bce-fadb8741e40a" points="39.17 162.08 43.24 156.1 46.31 162.08 39.17 162.08"/></g></g><g class="d0cb985e-796b-4ca2-9b8e-d05ed04b479f"><g class="0d16eaef-0436-4ab2-816c-58447b8f26c7"><polygon class="b1963066-3648-446f-ba2a-9c3782304d51" points="39.17 162.08 43.73 157.06 42.74 155.13 46.31 162.08 39.17 162.08"/></g></g><g class="6c431c65-c463-4ada-9aa8-4193a0a3397b"><g class="07c1cf39-0904-451e-8b65-5d68d54590f1"><polygon class="29b0cf28-f3e0-45f9-9bce-fadb8741e40a" points="46.31 162.08 42.24 156.1 39.17 162.08 46.31 162.08"/></g></g><g class="9d6f6934-e8db-40c3-8a8b-9752f8a56e4c"><g class="5cfd22ee-8e34-484b-b018-d5e639246b59"><polygon class="2bafa77e-8059-486f-a723-cda2af5cb396" points="44.66 158.88 46.31 162.08 41.01 162.08 44.66 158.88"/></g></g><g class="9d6f6934-e8db-40c3-8a8b-9752f8a56e4c"><g class="d6d7173b-ad3d-44ec-b17e-49e82e35505a"><polygon class="2bafa77e-8059-486f-a723-cda2af5cb396" points="40.82 158.88 39.18 162.08 44.47 162.08 40.82 158.88"/></g></g><path class="f4b9ce27-5146-41a5-89b6-77ac28e8e3aa" d="M43.85,160a1.09,1.09,0,1,0-1.82.8h0c.34.35.34.47.34.47h.79v0a1.23,1.23,0,0,1,.3-.41,1.09,1.09,0,0,0,.39-.83"/><path class="73022ff7-95ac-4003-acce-8f41085e5b0e" d="M41.93,160.29a1,1,0,0,1,1.5-.95.93.93,0,0,0-1.49,1.09,1.08,1.08,0,0,1,0-.14"/><path class="f4b9ce27-5146-41a5-89b6-77ac28e8e3aa" d="M43.17,161.47a.1.1,0,0,1-.1.1h-.59a.1.1,0,0,1,0-.2h.59a.1.1,0,0,1,.1.1"/><path class="f4b9ce27-5146-41a5-89b6-77ac28e8e3aa" d="M43.17,161.76a.1.1,0,0,1-.1.1h-.59a.1.1,0,0,1,0-.2h.59a.1.1,0,0,1,.1.1"/><polygon class="f4b9ce27-5146-41a5-89b6-77ac28e8e3aa" points="42.77 161.98 42.76 161.98 42.46 161.98 42.51 162.11 42.76 162.11 42.77 162.11 43.02 162.11 43.07 161.98 42.77 161.98"/></g><g id="260928f3-0a5c-4034-afb0-d1f26b4d19d6" data-name="kentucky_innocation_network"><rect class="f4b9ce27-5146-41a5-89b6-77ac28e8e3aa" x="58.01" y="180.93" width="22.88" height="8.47"/><image id="980028d7-7190-4a9d-a99a-195dd5d35e98" data-name="kin" width="1280" height="525" transform="translate(58.03 180.97) scale(0.02 0.02)" xlink:href="./assets/Asset 73.png"/></g><g id="a73b11ca-a058-44f9-94c9-70f2f468aa08" data-name="uk_venture_studio"><rect class="f4b9ce27-5146-41a5-89b6-77ac28e8e3aa" x="62.23" y="156.48" width="14.92" height="7.63"/><text class="1ca4c18a-8952-4ba7-8e26-23bf25c45da0" transform="translate(62.82 163.47)"><tspan class="8879a741-38d6-44b2-95f3-ca819f688429">V</tspan><tspan x="1.4" y="0">enture Studio</tspan></text><g class="7dca555d-1764-4027-8339-901c79f902e7"><path class="fd0f1d36-992e-48ea-81ba-76150e5c84e8" d="M71.62,158.24H70.44v-.59h.25V157H69.19v.66h.25v.59h-1v-.59h.25V157H67.19v.66h.25v1.25l.42.42h.58v.76h-.25v.67h1.49v-.67h-.25v-.18h.47l.29.28v.56h1.6v-.67h-.41l-.61-.6.58-.59h.44v-.66h-.17m.1.17v.41h-.39l-.66.67.68.67h.37v.52H70.27v-.52l-.33-.33h-.58v.33h.25v.52H68.26v-.52h.25v-.91h-.62l-.38-.38v-1.29h-.25v-.51h1.35v.51h-.25v.73h1.16v-.73h-.25v-.51h1.35v.51h-.25v.73h1.36Z"/></g><g class="0b660e7d-37fe-46e2-ac2b-f3fac9d212d5"><polyline class="fd0f1d36-992e-48ea-81ba-76150e5c84e8" points="70.37 158.73 70.51 158.73 69.98 159.26 69.26 159.26 69.26 158.73 69.51 158.73 69.51 158.42 68.36 158.42 68.36 158.73 68.61 158.73 68.61 160.26 68.36 160.26 68.36 160.58 69.51 160.58 69.51 160.26 69.26 160.26 69.26 159.74 69.98 159.74 70.51 160.26 70.37 160.26 70.37 160.58 71.62 160.58 71.62 160.26 71.31 160.26 70.53 159.49 71.28 158.73 71.62 158.73 71.62 158.42 70.37 158.42 70.37 158.73"/><polyline class="fd0f1d36-992e-48ea-81ba-76150e5c84e8" points="69.37 159.15 69.94 159.15 70.26 158.83 70.26 157.48 70.51 157.48 70.51 157.18 69.37 157.18 69.37 157.48 69.62 157.48 69.62 158.84 69.37 158.84 69.37 159.15"/><polyline class="fd0f1d36-992e-48ea-81ba-76150e5c84e8" points="68.25 157.48 68.51 157.48 68.51 157.18 67.36 157.18 67.36 157.48 67.61 157.48 67.61 158.83 67.93 159.15 68.51 159.15 68.51 158.84 68.25 158.84 68.25 157.48"/><path class="fd0f1d36-992e-48ea-81ba-76150e5c84e8" d="M72.12,160.75H72l-.06,0,0-.06a.18.18,0,0,1,0-.14l0-.06.06,0h.14l.06,0,0,.06a.18.18,0,0,1,0,.14l0,.06-.06,0h-.07m0,0h.06l0,0,0-.05a.17.17,0,0,0,0-.12l0,0,0,0h-.12l0,0,0,0a.17.17,0,0,0,0,.12l0,.05,0,0Zm.09-.06h0l-.06-.09h0v.09h0v-.2h.14a.05.05,0,0,1,0,0v0h0Zm-.1-.11h.06a0,0,0,0,0,0,0v0h-.1v.07Z"/></g></g><g id="ef675d73-b925-411f-a5a8-56623d8b0704" data-name="idea_state_u"><rect class="f4b9ce27-5146-41a5-89b6-77ac28e8e3aa" x="13.5" y="180.8" width="10.43" height="9.38"/><image id="32cfb9d3-4e1f-4626-a620-d8c1c89cf8ad" data-name="isu" width="512" height="429" transform="translate(13.35 180.91) scale(0.02)" xlink:href="./assets/Asset 74.png"/></g><g id="fdd67341-1edd-4c84-9583-8a189ff300e5" data-name="startup_weekend"><rect class="f4b9ce27-5146-41a5-89b6-77ac28e8e3aa" x="35.69" y="181.61" width="15.78" height="7.78"/><image id="ca90184f-327c-4503-83ff-a43f67c8a6e8" data-name="s_w" width="640" height="328" transform="translate(35.4 181.26) scale(0.03)" xlink:href="./assets/Asset 75.png"/></g><g id="c7b4cda1-5ef1-4215-906c-0edb29db9e83" data-name="inet"><rect class="f4b9ce27-5146-41a5-89b6-77ac28e8e3aa" x="14.4" y="169.69" width="7.15" height="6.72"/><image id="4c856e9b-1d82-4267-b631-65a1a1d503d9" data-name="in" width="149" height="140" transform="translate(14.4 169.69) scale(0.05)" xlink:href="./assets/Asset 76.png"/></g></g><g id="a1661db0-2263-46b7-88f5-0096b5f7cab9" data-name="pre_seed_funding"><g id="0862f23c-8c63-47d9-ad6f-d169a9e0b1a2" data-name="cherub_fund"><rect class="f4b9ce27-5146-41a5-89b6-77ac28e8e3aa" x="12.49" y="257.24" width="23.01" height="9.92"/><g id="32c6b633-0824-4425-a6d2-6d8a22f2fd2b" data-name="cherub"><path class="67131075-72b7-491b-9a9e-585df00d3618" d="M17.69,264a2.81,2.81,0,0,0-.56-.95c-.3-.37-.61-.71-.92-1.06a27.78,27.78,0,0,1-1.92-2.37,1.65,1.65,0,0,0,.44,1.48,11.34,11.34,0,0,0,1,1c.35.32.7.64,1,1l-1.57-1.38-.8-.81a1.86,1.86,0,0,0,1.15,1.68,9.26,9.26,0,0,1,1.46,1c-.89-.59-1.77-1.15-2.65-1.81,0,.92.71,1.17,1.21,1.38a6.75,6.75,0,0,1,1.45.73,22.7,22.7,0,0,1-2.56-1.18,1.12,1.12,0,0,0,1,1,5.63,5.63,0,0,1,1.61.51,19.57,19.57,0,0,1-2.21-.56c.16.62.58.65.95.66a6.4,6.4,0,0,1,1.2.11c0,.22-1.44,0-1.7-.06a.56.56,0,0,0,.69.42l.89-.12c.34,0,.88.11.78-.6Z"/><path class="67131075-72b7-491b-9a9e-585df00d3618" d="M17,264.14A3.07,3.07,0,0,1,17,263c.1-.48.22-.94.33-1.41A29.74,29.74,0,0,0,18,258.5a1.83,1.83,0,0,1,.28,1.6,11.81,11.81,0,0,1-.46,1.35c-.17.46-.32.91-.46,1.36.24-.63.49-1.29.76-2l.34-1.12a2,2,0,0,1-.25,2.1,9.41,9.41,0,0,0-.81,1.63c.52-1,1-1.87,1.51-2.87a1.58,1.58,0,0,1-.45,1.83,6.66,6.66,0,0,0-.94,1.33,22.15,22.15,0,0,0,1.72-2.24,1.16,1.16,0,0,1-.47,1.37A5.38,5.38,0,0,0,17.55,264a18.51,18.51,0,0,0,1.69-1.49.84.84,0,0,1-.54,1,5.94,5.94,0,0,0-1,.63c.1.2,1.26-.63,1.46-.8a.56.56,0,0,1-.41.7l-.84.27c-.32.11-.72.49-1-.23Z"/><path class="9b48a0e6-295d-483f-9624-70d507c470f0" d="M18.63,264.6a1.37,1.37,0,0,1-.56.1A1,1,0,0,1,17,263.6a1.09,1.09,0,0,1,1.16-1.15,1.25,1.25,0,0,1,.53.1l-.09.32a1.05,1.05,0,0,0-.42-.08.72.72,0,0,0-.76.8.71.71,0,0,0,.76.78,1.11,1.11,0,0,0,.43-.08Z"/><path class="9b48a0e6-295d-483f-9624-70d507c470f0" d="M18.94,262.38h.4v.93h0a.53.53,0,0,1,.2-.18.54.54,0,0,1,.27-.07c.27,0,.55.18.55.68v.92H20v-.88c0-.23-.08-.4-.3-.4a.32.32,0,0,0-.31.22.34.34,0,0,0,0,.12v.94h-.4Z"/><path class="9b48a0e6-295d-483f-9624-70d507c470f0" d="M21.06,264a.43.43,0,0,0,.48.41,1.18,1.18,0,0,0,.43-.07l.06.27a1.48,1.48,0,0,1-.55.1.74.74,0,0,1-.81-.79.78.78,0,0,1,.77-.84.68.68,0,0,1,.68.76,1,1,0,0,1,0,.17Zm.69-.28a.34.34,0,0,0-.33-.38.39.39,0,0,0-.36.38Z"/><path class="9b48a0e6-295d-483f-9624-70d507c470f0" d="M22.44,263.6c0-.21,0-.36,0-.51h.34v.3h0a.47.47,0,0,1,.43-.33h.09v.37H23.2a.35.35,0,0,0-.35.3.68.68,0,0,0,0,.12v.81h-.4Z"/><path class="9b48a0e6-295d-483f-9624-70d507c470f0" d="M25,264.19c0,.19,0,.34,0,.47h-.35l0-.24h0a.57.57,0,0,1-.5.27c-.29,0-.55-.17-.55-.68v-.92H24v.85c0,.26.08.43.29.43a.33.33,0,0,0,.3-.21.36.36,0,0,0,0-.12v-.95H25Z"/><path class="9b48a0e6-295d-483f-9624-70d507c470f0" d="M25.41,264.66c0-.11,0-.28,0-.44v-1.84h.4v.93h0a.57.57,0,0,1,.5-.25c.38,0,.66.32.65.8a.75.75,0,0,1-.71.84.54.54,0,0,1-.5-.27h0l0,.23Zm.41-.65a.43.43,0,0,0,0,.09.37.37,0,0,0,.35.28c.25,0,.4-.2.4-.52s-.13-.5-.4-.5a.37.37,0,0,0-.35.29.48.48,0,0,0,0,.1Z"/><path class="099b5e88-9910-4afb-aae9-2ead86ca7735" d="M27.32,262.49h1.25v.33h-.86v.6h.8v.33h-.8v.92h-.4Z"/><path class="099b5e88-9910-4afb-aae9-2ead86ca7735" d="M30.24,264.19c0,.19,0,.34,0,.47h-.35l0-.24h0a.57.57,0,0,1-.5.27c-.29,0-.55-.17-.55-.68v-.92h.4v.85c0,.26.08.43.29.43a.33.33,0,0,0,.3-.21.36.36,0,0,0,0-.12v-.95h.4Z"/><path class="099b5e88-9910-4afb-aae9-2ead86ca7735" d="M30.67,263.56c0-.18,0-.33,0-.47H31l0,.24h0a.57.57,0,0,1,.5-.27c.27,0,.56.18.56.67v.93h-.4v-.89c0-.23-.08-.4-.3-.4a.33.33,0,0,0-.31.23.4.4,0,0,0,0,.13v.92h-.4Z"/><path class="099b5e88-9910-4afb-aae9-2ead86ca7735" d="M34,262.38v1.84c0,.16,0,.33,0,.44h-.35l0-.25h0a.56.56,0,0,1-.51.28.72.72,0,0,1-.67-.8.75.75,0,0,1,.7-.84.5.5,0,0,1,.44.21h0v-.89Zm-.4,1.37a.55.55,0,0,0,0-.1.35.35,0,0,0-.34-.28c-.25,0-.4.23-.4.52s.14.5.39.5a.35.35,0,0,0,.34-.28.44.44,0,0,0,0-.12Z"/></g></g><g id="fbde15ac-43c1-4801-977f-0fb7ed9cfe9e" data-name="connetic"><rect class="f4b9ce27-5146-41a5-89b6-77ac28e8e3aa" x="38.56" y="258.24" width="17.35" height="9.64"/><image id="96adeb03-e9ad-49f4-983e-5feb22f07f54" data-name="con" width="927" height="515" transform="translate(38.56 258.24) scale(0.02)" xlink:href="./assets/Asset 77.png"/></g><g id="8779be45-1f16-4fa3-9c3d-298b59335988" data-name="bga_luanch_grant_fund"><rect class="f4b9ce27-5146-41a5-89b6-77ac28e8e3aa" x="61.34" y="273.54" width="17.53" height="8.12"/><text class="4acd35f8-33b3-4e3e-85fd-95bef9e2e907" transform="translate(61.14 276.84)">BGA LAUNCH<tspan x="-0.09" y="3.49">GRANT FUND</tspan></text></g><g id="a684c60b-d285-4c7a-a6d8-83eaa515132b" data-name="access_ventures"><rect class="f4b9ce27-5146-41a5-89b6-77ac28e8e3aa" x="13.17" y="276.17" width="27.07" height="4.31"/><image id="f21bde63-a138-44db-b470-a7b28b34d8ee" data-name="av" width="590" height="94" transform="translate(13.17 276.17) scale(0.05)" xlink:href="./assets/Asset 78.png"/></g><g id="678fa700-7906-4b7c-9512-11fd2424b240" data-name="lincoln_trail_venture_group"><rect class="f4b9ce27-5146-41a5-89b6-77ac28e8e3aa" x="43.7" y="271.77" width="13.12" height="13.12"/><image id="44f09ca1-56cd-407b-948b-96e54d87948f" data-name="ltvg" width="200" height="200" transform="translate(43.7 271.77) scale(0.07)" xlink:href="./assets/Asset 79.png"/></g><g id="73545421-a050-4bbd-9e1a-1f1371cf29b4" data-name="wild_duck"><image id="f2b53108-13a8-422d-8cd6-b152ef7bd423" data-name="Layer 0" width="450" height="188" transform="translate(60.21 258.43) scale(0.04)" xlink:href="./assets/Asset 710.png"/></g></g><g id="24080c11-82b7-4b56-b346-24d39fd388ae" data-name="accelerators"><g id="bd2bda90-6245-41a9-92b9-6bb990c53f3e" data-name="uptech"><rect id="b0a6eae6-9889-4fb2-89a9-d607011fd86c" data-name="up_tech" class="f4b9ce27-5146-41a5-89b6-77ac28e8e3aa" x="51.62" y="368.63" width="26.19" height="10.45"/><image id="91a12d90-0f2b-4171-bdba-4d7dec25e345" data-name="uptech" width="256" height="128" transform="translate(51.35 367.71) scale(0.11)" xlink:href="./assets/Asset 711.png"/></g><g id="5fd0df97-aeb5-4b4c-93ab-d00b44d7faac" data-name="awesome_fellowship"><polygon class="a53faf5c-ab48-4cd4-9c4f-9ed1b5b66a6a" points="64.87 359.66 69.05 351.53 73.23 359.66 64.87 359.66"/><polygon class="478ec3da-04f2-43dd-8fc1-e15323d1bbea" points="64.87 359.66 69.05 351.53 73.23 359.66 64.87 359.66"/><g class="d0cb985e-796b-4ca2-9b8e-d05ed04b479f"><g class="4c1e9a9e-c5c1-4225-9fd3-4c29e36ee40a"><g class="4c1e9a9e-c5c1-4225-9fd3-4c29e36ee40a"><polygon class="b1963066-3648-446f-ba2a-9c3782304d51" points="73.23 359.66 67.89 353.78 69.05 351.53 64.87 359.66 73.23 359.66"/></g></g></g><g class="6c431c65-c463-4ada-9aa8-4193a0a3397b"><g class="eab50091-f58a-4731-8e1d-13f490d5a0e9"><g class="eab50091-f58a-4731-8e1d-13f490d5a0e9"><polygon class="36522e4b-66ee-40d1-bbd1-bf7b2737f099" points="64.87 359.66 69.63 352.67 73.23 359.66 64.87 359.66"/></g></g></g><g class="d0cb985e-796b-4ca2-9b8e-d05ed04b479f"><g class="4c1e9a9e-c5c1-4225-9fd3-4c29e36ee40a"><g class="4c1e9a9e-c5c1-4225-9fd3-4c29e36ee40a"><polygon class="b1963066-3648-446f-ba2a-9c3782304d51" points="64.87 359.66 70.2 353.78 69.05 351.53 73.23 359.66 64.87 359.66"/></g></g></g><g class="6c431c65-c463-4ada-9aa8-4193a0a3397b"><g class="eab50091-f58a-4731-8e1d-13f490d5a0e9"><g class="eab50091-f58a-4731-8e1d-13f490d5a0e9"><polygon class="36522e4b-66ee-40d1-bbd1-bf7b2737f099" points="73.23 359.66 68.47 352.67 64.87 359.66 73.23 359.66"/></g></g></g><g class="9d6f6934-e8db-40c3-8a8b-9752f8a56e4c"><g class="0ed807af-0d4d-4b51-810c-e41e9847a339"><g class="0ed807af-0d4d-4b51-810c-e41e9847a339"><polygon class="2bafa77e-8059-486f-a723-cda2af5cb396" points="71.3 355.92 73.23 359.67 67.02 359.67 71.3 355.92"/></g></g></g><g class="9d6f6934-e8db-40c3-8a8b-9752f8a56e4c"><g class="70f9d77d-970b-4353-9eeb-4b2aebe87fd4"><g class="70f9d77d-970b-4353-9eeb-4b2aebe87fd4"><polygon class="2bafa77e-8059-486f-a723-cda2af5cb396" points="66.8 355.92 64.87 359.67 71.08 359.67 66.8 355.92"/></g></g></g><path class="f4b9ce27-5146-41a5-89b6-77ac28e8e3aa" d="M70.35,357.22a1.27,1.27,0,1,0-2.14.94h0c.4.41.4.55.4.55h.93v0a1.45,1.45,0,0,1,.36-.48,1.27,1.27,0,0,0,.45-1"/><path class="73022ff7-95ac-4003-acce-8f41085e5b0e" d="M68.1,357.57a1.23,1.23,0,0,1,1.75-1.11,1.09,1.09,0,0,0-1.74,1.28,1.19,1.19,0,0,1,0-.17"/><path class="f4b9ce27-5146-41a5-89b6-77ac28e8e3aa" d="M69.55,358.95a.12.12,0,0,1-.12.12h-.69a.12.12,0,1,1,0-.24h.69a.12.12,0,0,1,.12.12"/><path class="f4b9ce27-5146-41a5-89b6-77ac28e8e3aa" d="M69.55,359.3a.12.12,0,0,1-.12.12h-.69a.12.12,0,1,1,0-.24h.69a.12.12,0,0,1,.12.12"/><polygon class="f4b9ce27-5146-41a5-89b6-77ac28e8e3aa" points="69.08 359.55 69.07 359.55 68.72 359.55 68.78 359.7 69.07 359.7 69.08 359.7 69.37 359.7 69.43 359.55 69.08 359.55"/><path class="098c66ab-ce9c-4de0-a917-b75e040b8375" d="M63.37,362.09h.36l.13-.39h.58l.13.39h.36l-.57-1.76H64Zm.58-.69.21-.63.2.63Z"/><polygon class="098c66ab-ce9c-4de0-a917-b75e040b8375" points="64.73 360.33 65.28 362.09 65.67 362.09 65.88 361.37 66.12 362.09 66.51 362.09 66.99 360.33 66.64 360.33 66.31 361.64 66.03 360.78 66.16 360.33 65.8 360.33 65.48 361.63 65.09 360.33 64.73 360.33"/><path class="098c66ab-ce9c-4de0-a917-b75e040b8375" d="M67.08,361.74c0,.32.25.36.41.35,0,0,.61,0,.75,0v-.28h-.67c-.07,0-.15,0-.15-.13v-.27l.71,0v-.28l-.71,0v-.27c0-.07,0-.13.12-.13h.69v-.28c-.15,0-.77,0-.77,0a.34.34,0,0,0-.38.36Z"/><path class="098c66ab-ce9c-4de0-a917-b75e040b8375" d="M68.42,360.92a.41.41,0,0,0,.45.47h.27c.13,0,.16.07.16.17v.09c0,.13-.12.15-.22.15l-.61,0V362a2.37,2.37,0,0,0,.68.07c.24,0,.48-.07.48-.47v-.12c0-.19-.07-.47-.42-.47h-.28c-.13,0-.19,0-.19-.17v-.09c0-.16.08-.17.23-.17l.59,0v-.26a2.7,2.7,0,0,0-.68-.07c-.27,0-.48.11-.48.45Z"/><path class="098c66ab-ce9c-4de0-a917-b75e040b8375" d="M69.84,361.22c0,.8.27.88.71.88s.71-.1.71-.88-.29-.9-.71-.9S69.84,360.4,69.84,361.22Zm.34,0c0-.56.11-.59.37-.59s.37,0,.37.59-.09.57-.37.57S70.17,361.7,70.17,361.22Z"/><polygon class="098c66ab-ce9c-4de0-a917-b75e040b8375" points="71.41 362.09 71.74 362.09 71.84 360.91 72.14 362.09 72.51 362.09 72.8 360.91 72.91 362.09 73.24 362.09 73.08 360.33 72.61 360.33 72.32 361.53 72.03 360.33 71.56 360.33 71.41 362.09"/><path class="098c66ab-ce9c-4de0-a917-b75e040b8375" d="M73.43,361.74c0,.32.25.36.41.35,0,0,.61,0,.75,0v-.28h-.67c-.07,0-.15,0-.15-.13v-.27l.71,0v-.28l-.71,0v-.27c0-.07,0-.13.12-.13h.69v-.28c-.15,0-.77,0-.77,0a.34.34,0,0,0-.38.36Z"/><path class="098c66ab-ce9c-4de0-a917-b75e040b8375" d="M63.48,364h.25v-.54l.54,0v-.21l-.54,0V363s0-.1.09-.1h.53v-.21c-.12,0-.59,0-.59,0a.26.26,0,0,0-.29.28Z"/><path class="098c66ab-ce9c-4de0-a917-b75e040b8375" d="M64.58,363.71c0,.25.19.27.31.27l.57,0v-.21H65c-.05,0-.11,0-.11-.09v-.21l.54,0v-.21l-.54,0V363s0-.1.09-.1h.53v-.21c-.12,0-.59,0-.59,0a.26.26,0,0,0-.29.28Z"/><path class="098c66ab-ce9c-4de0-a917-b75e040b8375" d="M65.7,363.71c0,.2.13.26.28.26h.55v-.24h-.46c-.05,0-.11,0-.11-.09v-1H65.7Z"/><path class="098c66ab-ce9c-4de0-a917-b75e040b8375" d="M66.75,363.71c0,.2.13.26.28.26h.55v-.24h-.46c-.05,0-.11,0-.11-.09v-1h-.26Z"/><path class="098c66ab-ce9c-4de0-a917-b75e040b8375" d="M67.73,363.31c0,.61.21.67.54.67s.54-.08.54-.67-.22-.69-.54-.69S67.73,362.69,67.73,363.31Zm.25,0c0-.42.08-.45.28-.45s.28,0,.28.45-.07.43-.28.43S68,363.68,68,363.31Z"/><polygon class="098c66ab-ce9c-4de0-a917-b75e040b8375" points="68.92 362.64 69.34 363.97 69.63 363.97 69.79 363.43 69.97 363.97 70.27 363.97 70.63 362.64 70.36 362.64 70.12 363.63 69.91 362.98 70 362.64 69.72 362.64 69.48 363.63 69.19 362.64 68.92 362.64"/><path class="098c66ab-ce9c-4de0-a917-b75e040b8375" d="M70.81,363.09a.31.31,0,0,0,.34.35h.2c.1,0,.12,0,.12.13v.07c0,.1-.09.11-.16.11l-.47,0v.2a1.81,1.81,0,0,0,.52.05c.18,0,.37-.06.37-.36v-.09c0-.15-.05-.35-.31-.35h-.21c-.1,0-.14,0-.14-.13V363c0-.12.06-.13.18-.13l.45,0v-.2a2,2,0,0,0-.52-.05c-.2,0-.36.08-.36.34Z"/><polygon class="098c66ab-ce9c-4de0-a917-b75e040b8375" points="71.98 363.97 72.23 363.97 72.23 363.44 72.69 363.44 72.69 363.97 72.95 363.97 72.95 362.64 72.69 362.64 72.69 363.21 72.23 363.21 72.23 362.64 71.98 362.64 71.98 363.97"/><rect class="098c66ab-ce9c-4de0-a917-b75e040b8375" x="73.21" y="362.64" width="0.26" height="1.33"/><path class="098c66ab-ce9c-4de0-a917-b75e040b8375" d="M73.71,364H74v-.53l.32,0c.15,0,.37,0,.37-.43s-.2-.41-.37-.41h-.57Zm.26-.72v-.39h.3c.06,0,.13,0,.13.19s-.05.2-.13.2Z"/></g><g id="ab1afb23-b93d-42f6-8188-3f08fddabc65" data-name="ocean"><rect class="f4b9ce27-5146-41a5-89b6-77ac28e8e3aa" x="17.95" y="351.8" width="12.19" height="12.19"/><image id="13d92dcb-dcf1-4584-86e1-39d33175027f" data-name="&lt;image&gt;" width="1024" height="1024" transform="translate(17.95 351.8) scale(0.01)" xlink:href="./assets/Asset 712.png"/></g><g id="85780ed4-de7e-427a-9723-b6de0e4b032f" data-name="xlerate_health"><rect class="f4b9ce27-5146-41a5-89b6-77ac28e8e3aa" x="13.95" y="372.06" width="29.27" height="5.2"/><image id="f5ed1bce-5878-4489-abb7-80b0a8b2b3d1" data-name="xh" width="980" height="174" transform="translate(13.95 372.06) scale(0.03)" xlink:href="./assets/Asset 713.png"/></g><g id="98b2dcf0-aefd-475c-8afd-ba74dc8d4a3b" data-name="brandery"><rect id="36644aa1-3634-4ed5-b524-06e7954fac1b" data-name="the_brandery" class="f4b9ce27-5146-41a5-89b6-77ac28e8e3aa" x="38.81" y="351.29" width="16.41" height="13.51"/><image width="1030" height="599" transform="translate(33.61 349.99) scale(0.03)" xlink:href="./assets/Asset 714.png"/></g></g><g id="832a69e5-bef0-41fc-ac0b-5164bd916908" data-name="angel_investors"><g id="61094d80-9682-44c5-9b1d-a86a29d410f8" data-name="kscf"><rect class="f4b9ce27-5146-41a5-89b6-77ac28e8e3aa" x="36.6" y="448.86" width="25.41" height="10.42"/><image id="851ac4e6-1cee-4112-88b7-4c00916715c8" data-name="k_scf" width="217" height="86" transform="translate(36.6 448.86) scale(0.11)" xlink:href="./assets/Asset 715.png"/></g><g id="aca0b478-420a-4cef-a2e0-93bd6426d2b1" data-name="e_a"><rect class="f4b9ce27-5146-41a5-89b6-77ac28e8e3aa" x="68.09" y="448.53" width="12.32" height="9.92"/><image width="156" height="136" transform="translate(68.09 448.53) scale(0.08)" xlink:href="./assets/Asset 716.png"/></g><g id="7327027f-ad46-4b30-9bab-0904b66953a9" data-name="bluegrass_angels"><rect class="f4b9ce27-5146-41a5-89b6-77ac28e8e3aa" x="10.38" y="448.08" width="22.47" height="11.99"/><image id="0b5be862-6d1c-4e97-97a2-959a1ec86000" data-name="b_a" width="166" height="93" transform="translate(10.38 448.08) scale(0.14)" xlink:href="./assets/Asset 717.png"/></g><g id="241f391e-c17c-4039-8b24-b3039bf45267" data-name="commonwealth_seed_capital"><rect class="f4b9ce27-5146-41a5-89b6-77ac28e8e3aa" x="49.52" y="466.92" width="30.04" height="9.78"/><text class="54f17fa9-5f81-4b19-b9f3-2faaca8e69c4" transform="translate(50.82 471.05) scale(0.88 1)">COMMONWEALTH<tspan x="3.05" y="4.22">SEED CAPITAL</tspan></text></g><g id="4f037077-4255-485b-b8dc-a93d394079e1" data-name="louisville_angel_investor_network"><rect class="f4b9ce27-5146-41a5-89b6-77ac28e8e3aa" x="11.8" y="466.92" width="33.85" height="11.03"/><text class="a04d6d14-4dc2-472f-9b33-36cb4862f8ac" transform="translate(14.25 471.05) scale(0.9 1)">LOUISVILLE ANGEL<tspan class="23449fd4-a98d-4cdc-aa9a-01e7ce2a5c50"><tspan x="-1.75" y="4.22">INVESTOR NETWORK</tspan></tspan></text></g></g><g id="e3c08bd0-26f5-4145-98e0-65db8dcf600a" data-name="tech_resources"><g id="d602033c-8df2-4e46-b175-e365dae26a40" data-name="code_louisville"><rect class="f4b9ce27-5146-41a5-89b6-77ac28e8e3aa" x="39.39" y="556.33" width="41.05" height="7.14"/><g id="b6745651-20c8-415d-9abe-be3de070ee4d" data-name="cl"><path class="86cc7564-8e7b-4de8-857a-50088596e34c" d="M52.79,556.47h.62c0,1.63-.06,3.37,0,4.93-.1.1-.39,0-.57,0a1.65,1.65,0,0,0,0-.48,1.47,1.47,0,0,1-2.59-.75c-.18-1.26.68-2.73,2.07-2.16.21.09.23.21.48.4ZM51.52,561c1.6.52,1.79-2.74.22-2.51C50.59,558.66,50.62,560.71,51.52,561Z"/><path class="86cc7564-8e7b-4de8-857a-50088596e34c" d="M58,557.79H75.71v3.78H57.94v-3.65C57.94,557.86,57.93,557.8,58,557.79Zm3,3.08c1.28.33,1.26-2.6,0-2.24C60.47,558.8,60.24,560.66,61,560.87Zm4.79-2.11c-.71.71.62,1.1.53,1.63-.1.14-.49.1-.66,0,0,.14-.07.22,0,.4.56.14,1,0,1.14-.4.18-.7-.54-.79-.7-1.28.05-.22.36-.19.57-.13,0-.15.07-.22,0-.4A1,1,0,0,0,65.81,558.76Zm-6.68,2.11h1v-.4c-.18,0-.47.06-.57,0v-1.8h-.44Zm3.43-2.24c-.15,1.05,0,2.87,1.06,2.16.47-.32.17-1.38.26-2.16h-.44c-.1.62.24,1.67-.26,1.89-.35-.34-.1-1.28-.18-1.89Zm2,0v2.24H65v-2.24Zm3.12,2.24h.48c.15-.76.36-1.46.48-2.24h-.48a12.09,12.09,0,0,1-.26,1.67c0-.62-.19-1.07-.22-1.67h-.48C67.35,559.41,67.54,560.13,67.71,560.87Zm1.5-2.24c0,.73-.06,1.58,0,2.24h.4c0-.67,0-1.46,0-2.24Zm1.19,2.24h1v-.4c-.18,0-.47.06-.57,0v-1.8h-.44Zm1.58,0h1v-.4c-.18,0-.47.06-.57,0v-1.8H72Zm1.63,0h1v-.4H74v-.62h.48v-.35c-.15,0-.41.06-.48,0s-.06-.41,0-.48h.48v-.35h-1Z"/><path class="86cc7564-8e7b-4de8-857a-50088596e34c" d="M46.51,558.14c0,.17-.09.32-.13.48-2-1.05-2.69,2.38-.75,2.42a2.8,2.8,0,0,0,.79-.18,1.63,1.63,0,0,0,.09.48,1.84,1.84,0,0,1-2-3.08A2.22,2.22,0,0,1,46.51,558.14Z"/><path class="86cc7564-8e7b-4de8-857a-50088596e34c" d="M48.09,558a1.76,1.76,0,1,1-1.19,2.81A1.82,1.82,0,0,1,48.09,558Zm.48,3c1.06-.24,1.06-2.94-.53-2.55C46.87,558.78,47,561.4,48.57,561Z"/><path class="86cc7564-8e7b-4de8-857a-50088596e34c" d="M56.89,559.86H54.51c-.1,1.15,1.2,1.4,2.11,1,0,.18.09.26.09.44-1.42.58-2.79,0-2.82-1.45C53.85,557.46,57.23,557.31,56.89,559.86Zm-2.38-.44h1.8C56.44,558,54.43,558.2,54.51,559.42Z"/><path class="86cc7564-8e7b-4de8-857a-50088596e34c" d="M43.12,558.93c-.64.24-1.24.52-1.89.75a10.23,10.23,0,0,0,1.89.84v.57c-.93-.36-1.8-.78-2.73-1.14v-.44c.89-.37,1.8-.73,2.64-1.14C43.22,558.39,43.07,558.76,43.12,558.93Z"/><path class="86cc7564-8e7b-4de8-857a-50088596e34c" d="M76.68,558.36c.93.36,1.8.78,2.73,1.14v.44c-.93.36-1.79.79-2.73,1.14v-.57c.68-.22,1.24-.55,1.94-.75a13.85,13.85,0,0,0-1.94-.84Z"/><path class="a1f3c9d5-cc8b-4f09-865e-564012a2c147" d="M61.06,558.63c1.21-.36,1.24,2.58,0,2.24C60.24,560.66,60.47,558.8,61.06,558.63Zm.22,1.89c.29-.23.37-1.38,0-1.54C60.85,559.17,60.86,560.37,61.28,560.52Z"/><path class="a1f3c9d5-cc8b-4f09-865e-564012a2c147" d="M66.69,558.63c0,.18,0,.25,0,.4-.21-.06-.52-.08-.57.13.16.49.88.57.7,1.28-.09.37-.59.53-1.14.4,0-.18,0-.25,0-.4.17.06.56.09.66,0,.09-.52-1.24-.92-.53-1.63A1,1,0,0,1,66.69,558.63Z"/><path class="a1f3c9d5-cc8b-4f09-865e-564012a2c147" d="M59.13,558.63h.44v1.8c.1.1.39,0,.57,0v.4h-1Z"/><path class="a1f3c9d5-cc8b-4f09-865e-564012a2c147" d="M63,558.63c.08.61-.17,1.55.18,1.89.5-.22.17-1.27.26-1.89h.44c-.09.78.2,1.84-.26,2.16-1.05.72-1.21-1.1-1.06-2.16Z"/><path class="a1f3c9d5-cc8b-4f09-865e-564012a2c147" d="M65,558.63v2.24h-.44v-2.24Z"/><path class="a1f3c9d5-cc8b-4f09-865e-564012a2c147" d="M67.22,558.63h.48c0,.6.21,1.06.22,1.67a12.09,12.09,0,0,0,.26-1.67h.48c-.12.79-.34,1.48-.48,2.24h-.48C67.54,560.13,67.35,559.41,67.22,558.63Z"/><path class="a1f3c9d5-cc8b-4f09-865e-564012a2c147" d="M69.64,558.63c0,.78,0,1.58,0,2.24h-.4c-.1-.66,0-1.51,0-2.24Z"/><path class="a1f3c9d5-cc8b-4f09-865e-564012a2c147" d="M70.39,558.63h.44v1.8c.1.1.39,0,.57,0v.4h-1Z"/><path class="a1f3c9d5-cc8b-4f09-865e-564012a2c147" d="M72,558.63h.44v1.8c.1.1.39,0,.57,0v.4H72Z"/><path class="a1f3c9d5-cc8b-4f09-865e-564012a2c147" d="M73.6,558.63h1V559h-.48c-.1.08,0,.33,0,.48s.34,0,.48,0v.35H74v.62h.57v.4h-1Z"/><path class="86cc7564-8e7b-4de8-857a-50088596e34c" d="M61.24,559c.41.16.34,1.31,0,1.54C60.86,560.37,60.85,559.17,61.24,559Z"/></g></g><g id="76c5d758-2015-4e85-91d2-ffa380d85f17" data-name="awesome_inc_u"><polygon class="a53faf5c-ab48-4cd4-9c4f-9ed1b5b66a6a" points="17.52 562.19 23.85 549.87 30.18 562.19 17.52 562.19"/><polygon class="f4596836-a79b-48cb-8d09-98485e826fa8" points="17.52 562.19 23.85 549.87 30.18 562.19 17.52 562.19"/><rect class="b4469934-c5be-4a9a-886f-a584085d9adf" x="16.31" y="548.47" width="15.08" height="15.09"/><g class="d0cb985e-796b-4ca2-9b8e-d05ed04b479f"><g class="335f6b15-71c4-40e2-892d-035327c46da3"><g class="335f6b15-71c4-40e2-892d-035327c46da3"><polygon class="b1963066-3648-446f-ba2a-9c3782304d51" points="30.18 562.19 22.1 553.28 23.85 549.87 17.52 562.19 30.18 562.19"/></g></g></g><g class="6c431c65-c463-4ada-9aa8-4193a0a3397b"><g class="273ff2c5-543a-4f32-80af-d2494fff3738"><g class="273ff2c5-543a-4f32-80af-d2494fff3738"><polygon class="36522e4b-66ee-40d1-bbd1-bf7b2737f099" points="17.52 562.19 24.73 551.59 30.18 562.19 17.52 562.19"/></g></g></g><g class="d0cb985e-796b-4ca2-9b8e-d05ed04b479f"><g class="335f6b15-71c4-40e2-892d-035327c46da3"><g class="335f6b15-71c4-40e2-892d-035327c46da3"><polygon class="b1963066-3648-446f-ba2a-9c3782304d51" points="17.52 562.19 25.6 553.28 23.85 549.87 30.18 562.19 17.52 562.19"/></g></g></g><g class="6c431c65-c463-4ada-9aa8-4193a0a3397b"><g class="273ff2c5-543a-4f32-80af-d2494fff3738"><g class="273ff2c5-543a-4f32-80af-d2494fff3738"><polygon class="36522e4b-66ee-40d1-bbd1-bf7b2737f099" points="30.18 562.19 22.96 551.59 17.52 562.19 30.18 562.19"/></g></g></g><g class="9d6f6934-e8db-40c3-8a8b-9752f8a56e4c"><g class="4326cc20-48f6-44a0-ad8c-e60e5fac7e44"><g class="c5a3d62f-dc76-44d2-8af0-dace482753d1"><polygon class="2bafa77e-8059-486f-a723-cda2af5cb396" points="27.26 556.51 30.18 562.2 20.77 562.2 27.26 556.51"/></g></g></g><g class="9d6f6934-e8db-40c3-8a8b-9752f8a56e4c"><g class="06b2d867-503c-4e6c-9657-2470e045c503"><g class="06b2d867-503c-4e6c-9657-2470e045c503"><polygon class="2bafa77e-8059-486f-a723-cda2af5cb396" points="20.44 556.51 17.52 562.2 26.92 562.2 20.44 556.51"/></g></g></g><path class="f4b9ce27-5146-41a5-89b6-77ac28e8e3aa" d="M25.82,558.49a1.93,1.93,0,1,0-3.24,1.42h0c.61.62.6.83.6.83h1.41v0a2.21,2.21,0,0,1,.54-.73,1.93,1.93,0,0,0,.69-1.48"/><path class="73022ff7-95ac-4003-acce-8f41085e5b0e" d="M22.41,559a1.86,1.86,0,0,1,2.66-1.68,1.65,1.65,0,0,0-2.64,1.94,1.86,1.86,0,0,1,0-.25"/><path class="f4b9ce27-5146-41a5-89b6-77ac28e8e3aa" d="M24.6,561.11a.18.18,0,0,1-.18.18h-1a.18.18,0,0,1,0-.36h1a.18.18,0,0,1,.18.18"/><path class="f4b9ce27-5146-41a5-89b6-77ac28e8e3aa" d="M24.6,561.63a.18.18,0,0,1-.18.18h-1a.18.18,0,0,1,0-.36h1a.18.18,0,0,1,.18.18"/><polygon class="f4b9ce27-5146-41a5-89b6-77ac28e8e3aa" points="23.89 562.01 23.88 562.01 23.35 562.01 23.44 562.25 23.88 562.25 23.89 562.25 24.34 562.25 24.42 562.01 23.89 562.01"/><rect class="b4469934-c5be-4a9a-886f-a584085d9adf" x="16.31" y="548.47" width="15.08" height="15.09"/><text class="5f3d7c53-2706-4920-b33f-0d4ed37fa42d" transform="translate(11.75 566.02)"><tspan class="9de0a1a8-a73d-4ebd-95b5-192b6f045808">A</tspan><tspan class="1e85aa93-030d-41c7-8213-c50a9e14065f" x="1.92" y="0">W</tspan><tspan x="5.14" y="0">ES</tspan><tspan class="d8697d77-b556-4e85-ad81-9f3c1d92be7c" x="8.95" y="0">O</tspan><tspan class="b69279f3-1f40-49ac-b2cf-8b6eda087194" x="11.11" y="0">M</tspan><tspan x="13.95" y="0">E INC U</tspan></text></g></g><g id="d28196c2-f99f-49e7-b42b-a6188fe8aceb" data-name="chrysalis_ventures"><rect class="f4b9ce27-5146-41a5-89b6-77ac28e8e3aa" x="21.5" y="645.5" width="49.91" height="21.16"/><image id="a9b9799c-85d6-47cd-8c2f-4edd626e973f" data-name="c_v" width="728" height="297" transform="translate(21.5 645.5) scale(0.07)" xlink:href="./assets/Asset 718.png"/></g></g></g></svg>