<svg width = "160px" height = "30px" id="Layer_1" data-name="Layer 1" xmlns="http://www.w3.org/2000/svg" xmlns:xlink="http://www.w3.org/1999/xlink" viewBox="0 0 353.25 65.95"><defs><style>.cls-1,.cls-3{fill:none;}.cls-2{fill:#ef3641;}.cls-3{stroke:#ce2031;stroke-miterlimit:10;stroke-width:0.68px;}.cls-4{opacity:0.32;}.cls-5{clip-path:url(#clip-path);}.cls-6{fill:#841624;}.cls-7{opacity:0.58;}.cls-8{clip-path:url(#clip-path-2);}.cls-9{fill:#c1202a;}.cls-10{opacity:0.71;}.cls-11{clip-path:url(#clip-path-5);}.cls-12{fill:#841619;}.cls-13{clip-path:url(#clip-path-6);}.cls-14{fill:#fff;}.cls-15{fill:#ce2031;}.cls-16{fill:#323232;fill-rule:evenodd;}</style><clipPath id="clip-path" transform="translate(-36.62 -37.78)"><rect id="_Clipping_Path_" data-name="&lt;Clipping Path&gt;" class="cls-1" x="37.18" y="38.53" width="66.66" height="64.86"/></clipPath><clipPath id="clip-path-2" transform="translate(-36.62 -37.78)"><rect id="_Clipping_Path_2" data-name="&lt;Clipping Path&gt;" class="cls-1" x="37.18" y="47.58" width="66.66" height="55.8"/></clipPath><clipPath id="clip-path-5" transform="translate(-36.62 -37.78)"><rect id="_Clipping_Path_5" data-name="&lt;Clipping Path&gt;" class="cls-1" x="54.33" y="73.48" width="49.51" height="29.93"/></clipPath><clipPath id="clip-path-6" transform="translate(-36.62 -37.78)"><rect id="_Clipping_Path_6" data-name="&lt;Clipping Path&gt;" class="cls-1" x="37.18" y="73.48" width="49.51" height="29.93"/></clipPath></defs><title>logo</title><g id="_Group_" data-name="&lt;Group&gt;"><polygon id="_Path_" data-name="&lt;Path&gt;" class="cls-2" points="0.56 65.6 33.89 0.75 67.22 65.6 0.56 65.6"/><polygon id="_Path_2" data-name="&lt;Path&gt;" class="cls-3" points="0.56 65.6 33.89 0.75 67.22 65.6 0.56 65.6"/><g id="_Group_2" data-name="&lt;Group&gt;" class="cls-4"><g id="_Clip_Group_" data-name="&lt;Clip Group&gt;"><g class="cls-5"><polygon id="_Path_3" data-name="&lt;Path&gt;" class="cls-6" points="67.22 65.6 24.67 18.69 33.89 0.75 0.56 65.6 67.22 65.6"/></g></g></g><g id="_Group_3" data-name="&lt;Group&gt;" class="cls-7"><g id="_Clip_Group_2" data-name="&lt;Clip Group&gt;"><g class="cls-8"><polygon id="_Path_4" data-name="&lt;Path&gt;" class="cls-9" points="0.56 65.6 38.54 9.8 67.22 65.6 0.56 65.6"/></g></g></g><g id="_Group_4" data-name="&lt;Group&gt;" class="cls-4"><g id="_Clip_Group_3" data-name="&lt;Clip Group&gt;"><g class="cls-5"><polygon id="_Path_5" data-name="&lt;Path&gt;" class="cls-6" points="0.56 65.6 43.11 18.69 33.89 0.75 67.22 65.6 0.56 65.6"/></g></g></g><g id="_Group_5" data-name="&lt;Group&gt;" class="cls-7"><g id="_Clip_Group_4" data-name="&lt;Clip Group&gt;"><g class="cls-8"><polygon id="_Path_6" data-name="&lt;Path&gt;" class="cls-9" points="67.22 65.6 29.24 9.8 0.56 65.6 67.22 65.6"/></g></g></g><g id="_Group_6" data-name="&lt;Group&gt;" class="cls-10"><g id="_Clip_Group_5" data-name="&lt;Clip Group&gt;"><g class="cls-11"><polygon id="_Path_7" data-name="&lt;Path&gt;" class="cls-12" points="51.84 35.7 67.22 65.63 17.71 65.63 51.84 35.7"/></g></g></g><g id="_Group_7" data-name="&lt;Group&gt;" class="cls-10"><g id="_Clip_Group_6" data-name="&lt;Clip Group&gt;"><g class="cls-13"><polygon id="_Path_8" data-name="&lt;Path&gt;" class="cls-12" points="15.94 35.7 0.56 65.63 50.07 65.63 15.94 35.7"/></g></g></g><path id="_Path_9" data-name="&lt;Path&gt;" class="cls-14" d="M80.89,83.89a10.17,10.17,0,1,0-17.05,7.48h0C67,94.63,67,95.76,67,95.76h7.41v-.24c.14-.46.69-1.62,2.85-3.87a10.15,10.15,0,0,0,3.62-7.77" transform="translate(-36.62 -37.78)"/><path id="_Path_10" data-name="&lt;Path&gt;" class="cls-15" d="M63,86.66a9.8,9.8,0,0,1,14-8.87A8.71,8.71,0,0,0,63.06,88,10,10,0,0,1,63,86.66" transform="translate(-36.62 -37.78)"/><path id="_Path_11" data-name="&lt;Path&gt;" class="cls-14" d="M74.48,97.7a1,1,0,0,1-.95.95H68a.95.95,0,0,1,0-1.9h5.51a1,1,0,0,1,.95.95" transform="translate(-36.62 -37.78)"/><path id="_Path_12" data-name="&lt;Path&gt;" class="cls-14" d="M74.48,100.47a1,1,0,0,1-.95.95H68a.95.95,0,0,1,0-1.9h5.51a1,1,0,0,1,.95.95" transform="translate(-36.62 -37.78)"/><polygon id="_Path_13" data-name="&lt;Path&gt;" class="cls-14" points="34.13 64.68 34.08 64.68 31.29 64.68 31.74 65.95 34.08 65.95 34.13 65.95 36.47 65.95 36.92 64.68 34.13 64.68"/></g><g id="_Group_8" data-name="&lt;Group&gt;"><path id="_Path_14" data-name="&lt;Path&gt;" class="cls-16" d="M273.09,78.52q.63-3.85,1.25-7.71c.41-2.56.82-5.12,1.2-7.68.1-.7.35-1,1.15-1,3.21.05,6.42,0,9.63,0,.64,0,1,.06,1.08.87,1,9.47,2,18.94,3.06,28.41,0,.38,0,.76.09,1.13.13.65-.14.8-.74.79-2.12,0-4.25-.06-6.37,0-.94,0-1.06-.4-1.15-1.15-.54-4.45-1.11-8.89-1.67-13.33a1,1,0,0,0-.44-1c-.44,2.83-.86,5.54-1.28,8.24-.31,2-.65,4.1-.89,6.16-.1.86-.45,1.06-1.27,1-2.45-.05-4.91-.07-7.36,0-1,0-1.15-.34-1.28-1.19-.73-4.79-1.52-9.57-2.57-14.38-.26,2.08-.53,4.15-.77,6.23-.32,2.76-.65,5.53-.91,8.3-.07.77-.31,1-1.11,1-2.08-.05-4.16-.06-6.23,0-.87,0-1-.28-.91-1,.52-4.78,1-9.57,1.5-14.35s1.11-9.84,1.59-14.77c.09-.9.39-1.06,1.2-1,3.07,0,6.14.07,9.2,0,1,0,1.37.27,1.51,1.26.7,5,1.47,10.07,2.21,15.1l.28,0" transform="translate(-36.62 -37.78)"/><path id="_Path_15" data-name="&lt;Path&gt;" class="cls-16" d="M160.66,62.14a9.28,9.28,0,0,1-.24,1,14.61,14.61,0,0,0,.25,10.95c1.06,2.7,1.72,5.55,2.8,8.33q1-5.48,2-11,.77-4.17,1.52-8.35c.1-.57.2-1,1-1,2.59.06,5.19,0,7.93,0-.88,3.64-1.73,7.19-2.59,10.74-1.57,6.45-3.18,12.9-4.71,19.36-.2.86-.53,1.13-1.4,1.1-2.6-.06-5.19,0-7.79,0-.82,0-1.22-.15-1.45-1.06-.69-2.77-1.53-5.51-2.37-8.5a11.58,11.58,0,0,0-1,3.34c-.45,1.68-.89,3.37-1.24,5.08-.17.83-.44,1.18-1.37,1.15-2.64-.07-5.29-.06-7.93,0-.81,0-1.12-.24-1.34-1-2.74-9.8-5.52-19.58-8.28-29.36a7.86,7.86,0,0,1-.13-.81c2.74,0,5.42,0,8.1,0,1,0,.77.86.89,1.34,1.48,5.89,2.9,11.8,4.34,17.7.1.41.22.81.45,1.64.75-4.06,1.43-7.71,2.1-11.36.51-2.78,1-5.56,1.52-8.34.1-.57.2-1,1-1,2.59.07,5.19,0,7.91,0" transform="translate(-36.62 -37.78)"/><path id="_Path_16" data-name="&lt;Path&gt;" class="cls-16" d="M356.83,77.46c0-4.66,0-9.31,0-14,0-1.12.28-1.43,1.39-1.38,2,.09,4,.06,5.94,0,.77,0,.93.25.93,1q0,14.66,0,29.31c0,.75-.23,1-1,.93-2,0-4.06-.07-6.09,0a1.8,1.8,0,0,1-1.88-1.06c-2.66-4.65-5.4-9.27-8.13-13.93-.44.38-.23.83-.24,1.21,0,4.2,0,8.4,0,12.6,0,.89-.18,1.22-1.14,1.19-2-.08-4.06-.05-6.09,0-.73,0-1.08-.09-1.08-1q0-14.66,0-29.31c0-.77.26-.94,1-.93,2,0,4,.08,5.95,0a2.06,2.06,0,0,1,2.19,1.25c2.61,4.74,5.31,9.43,8,14.15l.26,0" transform="translate(-36.62 -37.78)"/><path id="_Compound_Path_" data-name="&lt;Compound Path&gt;" class="cls-16" d="M253,77.94a25,25,0,0,1-.64,7.58c-1.28,5.14-3.59,7.26-8.81,7.93a25.87,25.87,0,0,1-8.17-.2,8.26,8.26,0,0,1-6.66-6c-1.41-4.4-1.29-8.92-1-13.45a20.79,20.79,0,0,1,1-5.12c1.24-3.81,3.74-6.1,7.8-6.6a28.52,28.52,0,0,1,8.45.11c4.13.73,6.59,3.52,7.53,8.45a31.38,31.38,0,0,1,.5,3.64c.09,1.22,0,2.45,0,3.67m-17.22,0a34.22,34.22,0,0,0,.29,5,3.49,3.49,0,0,0,1.56,2.72,4.49,4.49,0,0,0,6.94-3.4,36.46,36.46,0,0,0,.06-8.6c-.41-3.75-1.84-4.88-5.52-4.37a3,3,0,0,0-2.79,2.41,28.93,28.93,0,0,0-.54,6.23" transform="translate(-36.62 -37.78)"/><path id="_Path_17" data-name="&lt;Path&gt;" class="cls-16" d="M208.88,86.19c1.84,0,3.68.05,5.52,0,1.6-.06,2-.54,2-2.11s-.39-2-2-2.06c-1.32-.06-2.64,0-4,0-5,0-7.87-2.49-8.35-7.47a30,30,0,0,1-.07-5.09,7.35,7.35,0,0,1,6.56-7.22,32.51,32.51,0,0,1,14,.78,1.23,1.23,0,0,1,1.08,1.46,43.18,43.18,0,0,0,0,4.39c0,.83-.24,1-1,1a88.47,88.47,0,0,0-10-.32c-1.88,0-2.27.34-2.31,1.87,0,1.83.39,2.32,2.31,2.4,1.23.05,2.46,0,3.68,0,4.88,0,7.5,2.2,8.31,7a17.49,17.49,0,0,1-.28,7.17c-.8,3.18-2.87,5.23-6.1,5.46-4.55.33-9.14.56-13.65-.67-1.26-.34-1.78-.87-1.63-2.22a27.59,27.59,0,0,0,0-4c0-.7.19-.86.89-.8,1.69.16,3.39.22,5.08.32,0,0,0,.06,0,.1" transform="translate(-36.62 -37.78)"/><path id="_Compound_Path_2" data-name="&lt;Compound Path&gt;" class="cls-16" d="M137.92,93.32c-2.69,0-5.24,0-7.79,0-.65,0-.88-.26-1.05-.85-.37-1.26-.89-2.48-1.24-3.75a1,1,0,0,0-1.19-.86c-2.17,0-4.34,0-6.51,0a1,1,0,0,0-1.19.88c-.32,1.13-.78,2.22-1.07,3.36-.23.89-.57,1.29-1.61,1.25-2.39-.11-4.79,0-7.35,0l3.5-11.17c2-6.33,4-12.65,5.91-19,.24-.79.55-1,1.35-1,2.59,0,5.19,0,7.79,0,.7,0,1.08.12,1.3.87,3,10,6.06,20.08,9.15,30.31M121.14,80.85c1.43,0,2.7,0,4,0,.54,0,.79-.11.62-.71-.67-2.39-1.32-4.78-2-7.45l-2.54,8.15" transform="translate(-36.62 -37.78)"/><path id="_Path_18" data-name="&lt;Path&gt;" class="cls-16" d="M293.61,77.89q0-4.32,0-8.64c0-4.28,2.31-6.87,6.6-7.06a105.08,105.08,0,0,1,14.41.51c.71.07.83.38.82,1,0,1.65-.06,3.31,0,5,0,.91-.21,1.19-1.15,1.17-3.4-.06-6.8,0-10.2,0a2.83,2.83,0,0,0-2.25,4c.22.37.59.21.9.22,3.15.15,6.31.32,9.47.4.87,0,1.14.31,1.11,1.16-.06,1.56-.07,3.12,0,4.67,0,.93-.25,1.2-1.18,1.21-3.11,0-6.22.2-9.33.24-.82,0-1,.26-1,1,0,2.68.42,3.18,3,3.17,3.16,0,6.33,0,9.49-.06.83,0,1.17.15,1.12,1.07-.08,1.65-.06,3.3,0,5,0,.66-.18.92-.83,1a110.56,110.56,0,0,1-14.69.63c-4.17-.19-6.32-2.78-6.32-7q0-4.32,0-8.64" transform="translate(-36.62 -37.78)"/><path id="_Path_19" data-name="&lt;Path&gt;" class="cls-16" d="M178,77.93q0-4.32,0-8.64c0-4.34,2.37-7,6.7-7.11A108.71,108.71,0,0,1,199,62.7c.67.06.87.3.86,1,0,1.75-.05,3.49,0,5.24,0,.78-.27.93-1,.92-3.4,0-6.8,0-10.2,0a2.77,2.77,0,0,0-2.43,4c.24.45.66.24,1,.26,3.06.15,6.12.33,9.18.4,1,0,1.35.24,1.3,1.27a46.3,46.3,0,0,0,0,4.67c0,.92-.31,1.09-1.14,1.1-3.11,0-6.22.22-9.33.24-.95,0-1.06.36-1.05,1.16,0,2.62.42,3.08,3,3.07,3.16,0,6.33,0,9.49-.07.95,0,1.2.27,1.16,1.18a44.41,44.41,0,0,0,0,4.67c.05.89-.29,1.13-1.09,1.2a138.08,138.08,0,0,1-14.13.63c-4.29-.1-6.63-2.71-6.64-7q0-4.32,0-8.64" transform="translate(-36.62 -37.78)"/><path id="_Path_20" data-name="&lt;Path&gt;" class="cls-16" d="M384.76,86.1c1.32-.07,2.64-.09,4-.21.83-.08,1.2.08,1.15,1a40.61,40.61,0,0,0,0,4.39c0,.86-.37,1.15-1.06,1.38-2.87,1-5.84,1-8.81,1a24.59,24.59,0,0,1-3.25-.15c-4.37-.58-6.94-3.24-8-7.36a35.43,35.43,0,0,1,0-17.1c1.18-4.8,4.43-7.14,9.36-7.18,3.54,0,7.06,0,10.49,1.17a1.54,1.54,0,0,1,1.23,1.84,29.89,29.89,0,0,0,0,3.68c.06,1-.1,1.5-1.36,1.29a42.91,42.91,0,0,0-8.46-.57c-2.27.09-3.07.67-3.49,2.91A30.17,30.17,0,0,0,376.51,83c.39,2.21,1.53,3.06,3.86,3.16,1.46.06,2.92,0,4.38,0,0,0,0-.05,0-.08" transform="translate(-36.62 -37.78)"/><path id="_Path_21" data-name="&lt;Path&gt;" class="cls-16" d="M336.14,77.72c0,4.81,0,9.63,0,14.44,0,.9-.19,1.22-1.14,1.18-2.07-.08-4.15,0-6.23,0-.67,0-.88-.18-.88-.86q0-14.72,0-29.45c0-.82.34-.9,1-.89,2,0,4.06.06,6.08,0,.92,0,1.18.22,1.17,1.16,0,4.81,0,9.63,0,14.44" transform="translate(-36.62 -37.78)"/></g></svg>