<?xml version="1.0" encoding="utf-8"?>
<!-- Generator: Adobe Illustrator 16.0.0, SVG Export Plug-In . SVG Version: 6.00 Build 0)  -->
<!DOCTYPE svg PUBLIC "-//W3C//DTD SVG 1.1//EN" "http://www.w3.org/Graphics/SVG/1.1/DTD/svg11.dtd">
<svg version="1.1" id="Layer_1" xmlns="http://www.w3.org/2000/svg" xmlns:xlink="http://www.w3.org/1999/xlink" x="0px" y="0px"
	 width="100px" height="98.98px" viewBox="0 0 100 98.98" enable-background="new 0 0 100 98.98" xml:space="preserve">
<g>
	<g>
		<path fill="#010101" d="M21.905,18.035c4.965,0,9.008-4.031,9.008-9.016c0-4.977-4.043-9.02-9.008-9.02
			c-4.997,0-9.029,4.042-9.028,9.02C12.877,14.003,16.909,18.035,21.905,18.035z"/>
		<path fill="#010101" d="M79.394,18.035c4.996,0,9.038-4.031,9.038-9.016c0-4.977-4.042-9.02-9.038-9.02
			c-4.965,0-9.006,4.042-9.006,9.02C70.388,14.003,74.431,18.035,79.394,18.035z"/>
		<g>
			<path fill="#010101" d="M99.484,36.247c-1.561-6.875-6.396-12.385-13.623-15.515c-0.497-0.216-3.602-0.575-3.921-0.577
				c-0.031,0-0.062-0.005-0.091-0.005h-4.883c-1.982,0-3.799,0.75-5.215,1.93c-0.049,0.041-0.113,0.041-0.15,0.071
				c-1.674,1.106-2.938,2.667-4.266,4.33c-2.99,3.692-6.373,7.91-15.844,8.957c-2.143,0.243-3.681,2.174-3.445,4.317
				c0.216,2.001,1.908,3.479,3.875,3.479c0.145,0,0.289-0.013,0.442-0.021c8.022-0.893,12.989-3.746,16.404-6.771v13.954h-0.039
				v9.816l0.146,33.912c0,2.679,1.799,4.854,4.022,4.854h0.774c2.226,0,4.021-2.173,4.021-4.854V60.212h3.434v33.912
				c0,2.679,1.801,4.854,4.021,4.854h0.777c2.222,0,4.023-2.174,4.023-4.854V60.212h0.145v-1.361
				c-0.823-0.155-1.596-0.525-2.234-1.081c-1.982-1.724-2.191-4.733-0.471-6.715c1.111-1.276,2-2.674,2.658-4.126V35.31v-0.93
				v-0.837c0.912,1.347,1.566,2.827,1.929,4.411c0.812,3.576,0.091,7.488-1.929,10.939c-0.562,0.959-1.215,1.886-1.973,2.756
				c-1.396,1.605-1.225,4.038,0.383,5.435c0.487,0.424,1.051,0.699,1.641,0.837c0.291,0.071,0.586,0.108,0.882,0.108
				c1.075,0,2.149-0.451,2.909-1.326C98.972,50.854,101.064,43.205,99.484,36.247z"/>
		</g>
		<path fill="#010101" d="M33.969,26.478c-1.323-1.651-2.586-3.221-4.258-4.328c-0.053-0.031-0.112-0.031-0.154-0.073
			c-1.428-1.181-3.231-1.928-5.221-1.928h-4.873c-0.296,0-0.587,0.019-0.875,0.048c-0.292,0.032-3.158,0.504-3.656,0.722
			c-6.371,2.76-10.979,7.816-13.327,14.621c-2.386,6.919-2.089,15.068,0.741,20.279c0.699,1.286,2.023,2.015,3.389,2.015
			c0.621,0,1.251-0.149,1.835-0.468c1.869-1.016,2.562-3.354,1.546-5.224c-1.509-2.778-2.101-8.66-0.228-14.091
			c0.488-1.42,1.236-3.049,2.366-4.635v0.805v0.859v15.312v0.694v9.122v33.914c0,2.676,1.801,4.852,4.022,4.852h0.775
			c2.224,0,4.021-2.173,4.021-4.852V60.212h3.727v33.912c0,2.679,1.8,4.854,4.022,4.854h0.775c2.222,0,4.023-2.174,4.023-4.854
			V60.212v-9.816L32.54,36.39c3.108,2.72,7.501,5.305,14.25,6.435c-0.563-0.821-1.005-1.745-1.127-2.812
			c-0.205-1.918,0.534-3.692,1.785-4.984C39.816,33.568,36.688,29.844,33.969,26.478z"/>
	</g>
</g>
</svg>
